<?xml version="1.0" encoding="utf-8"?>
<!-- Generator: Adobe Illustrator 23.0.3, SVG Export Plug-In . SVG Version: 6.00 Build 0)  -->
<svg version="1.1" id="Layer_1" xmlns="http://www.w3.org/2000/svg" xmlns:xlink="http://www.w3.org/1999/xlink" x="0px" y="0px"
	 viewBox="0 0 200 200" style="enable-background:new 0 0 200 200;" xml:space="preserve">
<style type="text/css">
	.st0{fill:#EA4336;}
</style>
<g>
	<g>
		<path class="st0" d="M128.71,68.32c-1.23,0.14-2-0.83-2.41-1.66c-0.54-1.1-1.27-1.23-2.24-1.2c-0.44,0.01-0.89,0.05-1.4,0.08
			c-0.12,0.36-0.23,0.71-0.35,1.09c-0.2-0.71-0.39-1.38-0.6-2.17c-0.38,0.17-0.67,0.21-0.82,0.38c-0.52,0.59-1.1,1-1.93,1
			c-0.46,0-0.7,0.33-0.7,0.81c0.02,1.57-0.59,2.94-1.32,4.28c-0.4,0.74-0.77,0.89-1.49,0.47c-0.52-0.3-0.95-0.75-1.42-1.13
			c-0.17-0.13-0.31-0.35-0.5-0.4c-0.98-0.25-1.97-0.46-3.03-0.7c-0.21-0.77-0.43-1.57-0.69-2.54c0.63-0.58,0.55-1.49,0.5-2.38
			c-0.05-1.01-0.63-1.49-1.62-1.36c-0.92,0.12-1.79,0.12-2.42-0.73c-0.12-0.16-0.36-0.24-0.61-0.39c-0.34,0.3-0.67,0.58-0.98,0.86
			c-0.7-0.49-1.07-1.36-0.88-2.02c0.39-1.39,0.39-1.39,0.1-2.78c-1.41-0.19-1.83,0.17-1.51,1.43c0.2,0.76-0.02,1.29-0.55,1.79
			c0.22,0.31,0.42,0.55,0.57,0.81c0.13,0.23,0.29,0.5,0.26,0.73c-0.12,1-0.3,1.99-0.46,2.99c-0.03,0.17-0.15,0.38-0.09,0.51
			c0.35,0.79-0.05,1.27-0.65,1.64c0.04,0.49,0.11,0.93,0.1,1.37c-0.03,0.98-0.03,1.93,0.46,2.85c0.59,1.1,0.33,2.27,0.03,3.41
			c-0.13,0.51-0.57,0.63-0.94,0.34c-0.94-0.75-1.11-1.9-1.41-2.97c-0.19-0.67,0.18-1.1,0.64-1.49c-0.13-0.4-0.29-0.8-0.37-1.2
			c-0.15-0.67-0.35-1.24-1.05-1.59c-0.92-0.47-0.69-1.46-0.78-2.26c-0.07-0.6,0.09-1.07,0.76-1.52c0.64-0.43,1.02-1.4,1.25-2.21
			c0.12-0.43-0.33-1.02-0.55-1.59c-0.73,0.31-1.29,0.55-1.93,0.82c-0.31-0.44-0.58-0.83-0.88-1.26c-0.41,0.11-0.54,0.41-0.48,0.79
			c0.17,1.15-0.33,1.92-1.38,2.31c-0.55,0.21-0.82,0.52-0.72,1.1c0.11,0.64-0.68,1.24-0.05,1.89c-1.12,0.89,0.27,2.44-0.99,3.3
			c0.38,0.33,0.68,0.59,1.05,0.92c-0.4,0.51-0.66,1.09,0.05,1.56c1.11,0.73,0.91,1.83,0.81,2.88c-0.04,0.39-0.18,0.78-0.29,1.16
			c-0.23,0.84-1.07,1.28-1.72,0.74c-0.77-0.65-1.55-0.78-2.43-0.62c-0.66-0.81-0.19-1.37,0.33-1.86c-0.36-0.43-0.72-0.81-1.01-1.23
			c-0.15-0.21-0.27-0.5-0.25-0.74c0.12-1.55,0.29-3.09,0.45-4.69c0.24,0.08,0.54,0.27,0.86,0.28c0.53,0.02,0.82-0.36,0.87-0.84
			c0.06-0.56-0.35-0.68-0.79-0.65c-0.56,0.04-1.1,0.1-1.3-0.6c-0.19-0.69-0.13-1.26,0.39-1.85c0.52-0.59,0.91-1.31,1.24-2.03
			c0.14-0.3,0.08-0.82-0.1-1.1c-0.11-0.17-0.63-0.13-0.96-0.11c-0.56,0.04-0.92,0.29-1.24,0.83c-0.33,0.55-0.94,1.01-1.53,1.31
			c-1.56,0.79-2.1,2.35-2.91,3.7c-0.21,0.35-0.35,0.93-0.21,1.28c0.59,1.49,0.09,3.16,0.93,4.62c0.35,0.61,0.32,1.42,0.87,2.03
			c0.23,0.25,0.11,0.83,0.16,1.41c-0.88-0.28-1.6-0.44-2.27-0.74c-0.27-0.12-0.6-0.53-0.59-0.8c0.04-0.82-0.31-1.4-0.9-1.84
			c-0.63-0.46-0.62-1.11-0.21-1.52c0.88-0.88,0.75-1.88,0.68-2.94c-0.13-1.86-0.1-1.87,0.74-3.31c-0.31-0.36-0.58-0.74-0.91-1.06
			c-0.54-0.53-1.14-0.45-1.35,0.26c-0.25,0.82-1.01,1.53-0.54,2.54c0.08,0.16-0.19,0.64-0.4,0.73c-0.27,0.12-0.69,0.08-0.97-0.05
			c-0.47-0.23-0.84-0.72-1.32-0.86c-0.72-0.2-1.5-0.26-2.24-0.22c-1.45,0.07-2.06-0.52-1.88-1.95c0.03-0.22,0.1-0.43,0.17-0.69
			c-0.19-0.18-0.37-0.39-0.58-0.53c-0.18-0.12-0.4-0.16-0.65-0.25c-0.37,0.79-0.6,1.53-0.37,2.35c0.02,0.09,0.05,0.17,0.06,0.26
			c0.2,2.17-0.35,2.91-2.5,3.41c-0.5,0.11-0.87-0.08-0.89-0.54c-0.04-1.63-0.65-3.26,0.03-4.9c0.18-0.44,0.17-0.95,0.26-1.43
			c0.28-1.34,1.29-2.14,2.36-2.72c0.77-0.42,1.46-0.88,1.93-1.58c0.5-0.74,1.15-0.93,1.96-0.86c0.49,0.04,0.98,0.09,1.47,0.1
			c0.26,0.01,0.63,0.04,0.77-0.11c0.75-0.77,1.8-0.74,2.72-1.03c0.59-0.19,1.34-0.15,1.94,0.05c0.48,0.16,0.84,0.14,1.26-0.03
			c1.71-0.67,3.39-0.63,5.06,0.14c0.25,0.11,0.61,0.09,0.88,0c1.83-0.62,3.65-0.96,5.63-0.66c1.34,0.2,2.77,0.05,4.13-0.15
			c0.73-0.11,1.21,0.04,1.69,0.47c0.27,0.24,0.47,0.55,0.76,0.75c0.42,0.29,1.01,0.5,1.34,0.03c0.85-1.18,2.08-0.9,3.18-0.9
			c1.91-0.01,3.82-0.1,5.73,0.23c1.07,0.19,2.23,0.02,3.32-0.14c0.81-0.12,1.55-0.35,2.19,0.39c0.09,0.1,0.42-0.01,0.64-0.01
			c1.65,0,3.29,0.02,4.94,0c0.9-0.01,1.54,0.36,1.98,1.13c0.09,0.15,0.2,0.29,0.32,0.45c1.45-0.67,2.8-0.15,4.11,0.11
			c1.04,0.21,2.21,0.41,3.01,1.28c1.1,1.21,1.94,2.63,2.52,4.13c0.22,0.58-0.08,1.39-0.23,2.08c-0.14,0.64-0.21,1.21,0.18,1.79
			c0.14,0.21,0.23,0.49,0.23,0.74c-0.04,1.14-0.32,2.31-0.14,3.42c0.3,1.89-0.32,3.81,0.34,5.69c0.5,1.41-0.54,2.49-2.03,2.24
			c-1.1-0.18-2.18-0.41-3.27-0.66c-0.67-0.15-1.47-1.2-1.58-1.92c-0.17-1.06-0.25-2.07,0.15-3.13c0.34-0.89-0.12-1.95,0.41-2.87
			c0.1-0.17-0.16-0.57-0.29-0.85C129.21,69.27,128.95,68.81,128.71,68.32z M81.29,59.36c0.36,0,0.72,0,1.17,0
			c-0.27-0.22-0.46-0.38-0.64-0.53c0.17-0.65,0.6-0.75,1.14-0.76c0.51,0,0.85-0.21,0.81-0.79c-0.69-0.27-0.69-0.27-2.25,0.7
			C81.45,58.42,81.38,58.85,81.29,59.36z M112.28,66.06c0.32,0.11,0.62,0.31,0.89,0.29c0.25-0.02,0.69-0.35,0.67-0.46
			c-0.13-0.54,0.13-1.26-0.61-1.63C112.93,64.85,112.64,65.38,112.28,66.06z M128.39,67.09c1.17-0.96,1.22-1.5,0.43-2.4
			C128.69,65.41,128.56,66.12,128.39,67.09z M113.16,61.84c0.36-0.55,0.75-1.1,0.42-1.84C112.69,60.52,112.85,61.16,113.16,61.84z
			 M100.11,67.58c-0.17-0.65-0.34-1.3-0.5-1.95c-0.1,0.03-0.2,0.06-0.3,0.09C99.09,66.47,99.66,67.01,100.11,67.58z M95.4,59.72
			c0.54,0.19,1.08,0.51,1.5-0.16c0.07-0.11-0.06-0.49-0.18-0.53c-0.53-0.21-1.03-0.16-1.35,0.41C95.35,59.46,95.37,59.51,95.4,59.72
			z M79.86,60.63c0.8,0.21,0.8,0.21,0.95-0.41C80.55,60.33,80.33,60.43,79.86,60.63z M78.67,61.18c0.09,0.03,0.19,0.07,0.28,0.1
			c0.08-0.1,0.17-0.19,0.23-0.29c0.18-0.31,0.02-0.66-0.18-0.5C78.82,60.63,78.77,60.94,78.67,61.18z M91.73,74.72
			c-0.03-0.02-0.05-0.07-0.08-0.07c-0.03,0-0.05,0.04-0.08,0.07c0.03,0.02,0.05,0.07,0.08,0.07C91.68,74.78,91.71,74.74,91.73,74.72
			z"/>
		<path class="st0" d="M81.63,87.1c0.55,0.35,1.03,0.65,1.51,0.95c0.64-0.48,0.73-1.01,0.72-1.76c-0.01-1.42-0.36-2.81-0.15-4.25
			c0.1-0.7,0.33-1.28,0.7-1.83c0.15-0.22,0.4-0.4,0.46-0.64c0.27-1.01,1.04-1.23,1.91-1.34c0.07,0.11,0.17,0.2,0.15,0.26
			c-0.32,1.05-0.28,2.01,0.6,2.82c0.14,0.13,0.18,0.4,0.22,0.61c0.1,0.55,0.4,0.91,0.93,1.02c1.06,0.21,1.32,0.94,1.32,1.88
			c0,0.31,0,0.62,0,1c0.71,0.24,0.93,1.4,1.99,0.97c0.56,0.61,1.31,1.13,1.62,1.85c0.3,0.68,0.33,1.6-0.56,2.18
			c-0.42-0.28-0.86-0.55-1.28-0.85c-0.42-0.3-0.82-0.62-1.33-1.02c-0.2,0.12-0.47,0.36-0.79,0.46c-0.41,0.13-0.89,0.29-1.29,0.19
			c-0.56-0.14-1.02-0.24-1.51,0.15c-0.13,0.1-0.41,0.03-0.62,0.01c-0.71-0.06-1.42-0.07-2.12-0.2c-0.45-0.09-0.87-0.35-1.49-0.61
			c-0.07,0.33-0.15,0.63-0.2,0.93c-0.16,0.97-0.4,1.13-1.47,0.95c-0.55-0.09-0.91,0.24-0.72,0.78c0.14,0.4,0.41,0.87,0.75,1.05
			c1.26,0.68,1.1,1.95,1.26,3.02c0.1,0.66-0.13,1.43-0.38,2.09c-0.34,0.89-0.3,1.63,0.62,2.34c-1.19,0.7-1.57,1.73-1.47,3.11
			c0.37,0.13,0.82,0.29,1.35,0.47c0.2,0.71,0.07,1.6,0.77,2.26c0.19,0.18,0.04,0.76-0.02,1.15c-0.09,0.6-0.27,1.2,0.07,1.86
			c0.84-0.41,0.49-1.36,1-1.83c0.68,0.28,0.94,1.02,0.48,1.62c-0.28,0.37-0.71,0.7-1.14,0.84c-0.68,0.24-1.31,0.41-1.72,1.12
			c-0.19,0.33-0.73,0.45-1.2,0.71c-0.06,0.4-0.12,0.88-0.2,1.44c0.75,0.08,1,0.53,1.04,1.27c0.02,0.51,0.27,1.04,0.54,1.49
			c0.29,0.49,0.33,0.84-0.02,1.33c-0.4,0.57-0.65,1.24-0.97,1.87c-0.06,0.12-0.08,0.28-0.17,0.36c-0.26,0.21-0.57,0.56-0.82,0.53
			c-0.25-0.03-0.6-0.41-0.67-0.7c-0.25-1.08-0.39-2.19-0.61-3.28c-0.11-0.55-0.3-1.09-0.45-1.63c-0.1-0.34-0.32-0.71-0.27-1.03
			c0.2-1.31-0.21-2.66,0.31-3.95c0.1-0.24,0.12-0.53,0.11-0.79c-0.06-1.41-0.18-2.81-0.2-4.22c-0.01-0.79-0.02-1.64,0.22-2.38
			c0.42-1.28-0.11-2.7,0.64-3.92c0.12-0.2,0.15-0.57,0.05-0.77c-0.37-0.71-0.73-1.41-0.57-2.24c-0.89-1.13-0.48-2.37-0.32-3.6
			c0.01-0.07-0.07-0.16-0.17-0.35c-0.55,0.13-1.16,0.14-1.35-0.78c-0.07,0.08-0.14,0.16-0.22,0.24c0.03,0.22,0,0.49,0.11,0.66
			c0.21,0.31,0.68,0.55,0.72,0.86c0.04,0.4-0.11,1.01-0.4,1.23c-1.1,0.82-1.19,2.02-1.39,3.18c-0.1,0.58-0.32,0.99-0.79,1.33
			c-0.32,0.23-0.59,0.53-0.87,0.79c0.39,1.73,0.45,3.35-0.3,4.98c-0.34,0.74-0.35,1.59-0.37,2.45c-0.02,1.08,0.71,2.35-0.38,3.33
			c-0.05,0.04-0.03,0.17-0.04,0.26c-0.12,1.28-0.29,2.56-0.35,3.84c-0.05,1.2,0.01,2.41,0.04,3.62c0.02,0.75,0.04,1.48,0.36,2.22
			c0.22,0.52,0.14,1.24,0,1.83c-0.14,0.58-0.53,1.11-0.69,1.43c-1.02,0.45-1.85,0.81-2.79,1.21c-0.82-1.3-1.3-2.8-1.11-4.5
			c0.07-0.6,0.22-1.26-0.53-1.66c0.15-0.45,0.33-0.86,0.42-1.29c0.06-0.28,0-0.58-0.01-0.87c-0.03-0.78-0.26-1.63-0.03-2.32
			c0.47-1.41,0.2-2.62-0.49-3.83c-0.2-0.35-0.4-0.69-0.68-1.16c0.52-0.43,1.02-0.84,1.61-1.32c-0.31-0.11-0.61-0.21-1.06-0.36
			c0.1-0.47,0.17-0.98,0.32-1.47c0.2-0.63,0.21-1.17-0.11-1.79c-0.66-1.29-0.96-2.67-0.66-4.15c0.07-0.36-0.05-0.8-0.18-1.16
			c-0.28-0.76-0.12-1.36,0.4-1.97c0.68-0.81,1.29-1.68,1.92-2.52c-0.07-0.07-0.14-0.13-0.21-0.2c-0.07,0.05-0.15,0.09-0.21,0.15
			c-0.44,0.42-0.92,0.6-1.4,0.1c-0.4-0.42-0.34-1.61,0.2-1.81c1.13-0.41,1.14-1.36,1.35-2.24c0.02-0.09,0.05-0.17,0.11-0.35
			c-0.22-0.03-0.42-0.05-0.7-0.08c0.1,0.72,0.09,1.35-0.94,1.22c-0.1-0.25-0.27-0.53-0.3-0.82c-0.13-1.25-0.22-2.51-0.33-3.76
			c-0.07-0.79,1.05-1.84,1.83-1.69c0.46,0.09,0.71,0.36,0.65,0.85c-0.08,0.66-0.17,1.33-0.25,1.95c0.41,0.3,0.9,0.5,1.11,0.86
			c0.2,0.34,0.17,0.86,0.11,1.28c-0.14,0.91,0.05,1.87-0.43,2.75c-0.09,0.17,0.1,0.6,0.28,0.8c0.26,0.29,0.63,0.47,1.08,0.79
			c0.19-0.41,0.41-0.74,0.51-1.1c0.22-0.86,0.32-1.75,0.57-2.6c0.19-0.65,0.29-1.21-0.31-1.67c1.06-0.78,1.19-1,0.83-2.15
			c-0.24-0.76-0.05-1.27,0.51-1.77c0.95-0.86,0.91-0.99,0.06-1.87c-0.32-0.32-0.48-0.82-0.66-1.25c-0.13-0.31-0.16-0.65-0.25-1.08
			c-1.29,1.33-0.99,3.11-1.75,4.61c-1-0.46-1.93-0.86-2.82-1.34c-0.22-0.12-0.33-0.49-0.42-0.77c-0.32-1.05-0.62-2.12-0.96-3.3
			c0.47-0.82,1.05-1.76,2.06-2.35c0.17-0.1,0.34-0.35,0.35-0.54c0.1-1.26,1.29-1.84,1.75-2.88c0.03-0.06,0.15-0.08,0.39-0.18
			c0.46,0.57,0.95,1.17,1.47,1.81c-0.2,0.39-0.46,0.72-0.53,1.08c-0.05,0.25,0.12,0.74,0.29,0.78c0.28,0.07,0.76-0.02,0.92-0.22
			c0.21-0.28,0.25-0.72,0.28-1.1c0.12-1.33,1.34-2.17,2.58-1.77c0.33,0.11,1.45,1.52,1.47,1.92c0.04,0.71,0.06,1.43,0.03,2.14
			c-0.05,1.02,0.18,1.33,1.23,1.45c0.18,0.02,0.36,0.04,0.53,0.05c0.61,0.05,0.99,0.31,1.02,1c0.02,0.38,0.16,0.76,0.27,1.22
			c-0.87,0.6-0.98,1.46-0.89,2.52c0.08,0.96,0.34,2.03-0.45,2.93c-0.17,0.19-0.02,0.66-0.02,1.02c0.45,0.15,0.82,0.27,1.27,0.41
			C80.82,87.72,81.17,87.46,81.63,87.1z"/>
		<path class="st0" d="M124.14,103.26c0.74,0.69,1.01,1.42,0.64,2.31c-0.37,0.9-0.84,1.73-0.49,2.82c0.14,0.42-0.27,1.01-0.39,1.53
			c-0.22,0.95-0.51,1.9-0.59,2.86c-0.12,1.49-0.75,2.66-1.89,3.53c-0.54,0.41-0.65,0.8-0.42,1.37c0.26,0.66,0.45,1.37,0.81,1.98
			c0.28,0.47,0.17,0.72-0.19,1.01c-0.99,0.8-1.43,1.88-1.63,3.11c-0.22,1.43-1.08,1.73-2.25,0.82c-0.21-0.16-0.42-0.4-0.66-0.45
			c-1.4-0.26-1.8-1.34-2.11-2.5c-0.3-1.12-0.29-1.12-1.22-1.67c-0.2-0.79-0.37-1.57-0.6-2.32c-0.18-0.58,0.11-0.95,0.56-1.03
			c0.89-0.16,1.05-0.79,1.25-1.5c0.15-0.55,0.44-1.07,0.66-1.6c0.27-0.64,0.68-0.91,1.37-0.55c0.31,0.16,0.64,0.29,0.95,0.44
			c0.5,0.25,1.53,0.07,1.79-0.42c0.16-0.31,0.26-0.9,0.09-1.1c-0.69-0.81-1.51-1.51-2.25-2.22c0.38-1.92,0.79-3.86,1.14-5.82
			c0.08-0.43,0.12-0.94-0.04-1.33c-0.67-1.6,0.1-3.01,0.59-4.39c0.31-0.88,0.6-1.69,0.29-2.57c-0.22-0.65,0.01-1.04,0.56-1.31
			c0.57-0.28,1.07-0.32,1.54,0.26c0.63,0.78,1.48,1.13,2.46,0.76c0.59-0.22,1.35-0.18,1.83-1.09c-0.4,0-0.72-0.1-0.89,0.02
			c-1.02,0.75-1.88,0.24-2.7-0.33c-0.71-0.5-0.68-1.26-0.11-1.94c0.38-0.46,0.73-0.99,0.96-1.55c0.3-0.76,0.7-1.32,1.62-1.41
			c0.01-0.74,0.15-1.34,0.59-1.98c0.73-1.09,1.35-2.33,1.11-3.77c-0.06-0.39,0.05-0.8,0.06-1.2c0.01-0.58,0-1.16,0-2.02
			c0.03-0.03,0.27-0.29,0.51-0.55c0.16,0.08,0.29,0.12,0.39,0.19c1.13,0.82,0.87,2.14,1.18,3.26c0.01,0.04,0,0.1-0.02,0.13
			c-1.09,1.06-0.47,2.34-0.43,3.54c0.03,0.78,0.02,1.45-0.52,2.12c-0.33,0.41-0.33,1.08-0.49,1.67c-0.42,0.15-0.86,0.31-1.55,0.56
			c0.83,0.65,1.49,1.17,2.17,1.71c1.43-0.17,2.6-0.88,3.57-2.08c-0.88-0.43-1.75-0.86-2.69-1.32c0.12-0.82-0.03-1.79,1.24-2.04
			c0.27,0.36,0.53,0.7,0.84,1.1c1.09-0.57,2.28-0.84,3.04-1.9c0.4-0.55,1.27-0.71,1.68-0.39c0.48,0.37,0.71,0.83,0.51,1.52
			c-0.14,0.48,0.01,1.04,0.04,1.57c0.01,0.13,0.16,0.3,0.11,0.37c-0.81,1.35,0.3,2.64,0.1,3.98c-0.15,0.95-0.11,1.93-0.17,2.9
			c-0.02,0.35-0.21,0.78-0.08,1.05c0.83,1.65,0.01,3.32,0.13,4.98c0.11,1.48-0.12,2.99-0.23,4.48c-0.04,0.53-0.17,1.05-0.25,1.57
			c-0.06,0.39-0.11,0.79-0.16,1.18c-0.05,0.34-0.03,0.72-0.16,1.02c-0.4,0.89-0.65,1.7-0.56,2.77c0.07,0.81-0.03,1.71,0.07,2.58
			c0.02,0.2,0,0.47,0.11,0.59c0.47,0.51,0.33,1.04,0.22,1.63c-0.09,0.45,0,0.95,0.06,1.42c0.05,0.39,0.23,0.77,0.25,1.16
			c0.06,1.56,0.12,3.13,0.11,4.69c0,0.57-0.28,1.13-0.3,1.7c-0.02,0.75,0.13,1.51,0.12,2.26c0,0.52-0.09,1.06-0.26,1.54
			c-0.08,0.22-0.47,0.49-0.7,0.47c-0.84-0.06-1.66-0.23-2.49-0.36c-0.22-0.03-0.51,0.01-0.65-0.11c-1.04-0.86-2.34-0.73-3.53-0.98
			c-0.97-0.2-1.08-0.38-1.12-1.37c-0.04-1.03-0.1-2.06-0.06-3.08c0.02-0.57,0.12-1.17,0.36-1.68c0.57-1.21,0.56-2.43,0.19-3.66
			c-0.24-0.79-0.23-1.47,0.3-2.14c0.53-0.67,0.62-1.49,0.55-2.3c-0.1-1.08,0.1-2.09,0.31-3.15c0.24-1.24,0.11-2.58-0.02-3.86
			c-0.11-1.11-0.42-2.2-0.14-3.32c0.04-0.17,0.07-0.39,0-0.53c-0.79-1.48-0.07-3.19-0.69-4.69c-0.03-0.06,0.05-0.16,0.09-0.29
			c0.82-0.53,1.5,0.17,2.3,0.33c0.3-0.26,0.62-0.54,1-0.87c0.7,0.69,1.38,1.32,2.62,1.2c-0.27-0.78-0.53-1.46-0.74-2.16
			c-0.11-0.38-0.18-0.77-0.2-1.17c-0.03-0.66-0.01-1.32-0.01-2.33c-0.39,0.39-0.71,0.56-0.72,0.74c-0.02,0.66,0.04,1.33,0.11,1.99
			c0.09,0.83-0.37,1.25-1.1,0.84c-0.64-0.36-1.19-0.9-1.71-1.43c-0.47-0.48-0.53-1.01,0.13-1.46c0.5-0.35,0.36-0.79,0.01-1.14
			c-0.33-0.34-0.93-0.14-1.2,0.38c-0.14,0.27-0.23,0.58-0.29,0.88c-0.25,1.34-0.36,1.43-1.81,1.26c-0.11,0.46-0.44,1.03-0.28,1.38
			c0.67,1.47-0.58,2.5-0.75,3.77C124.83,102.55,124.4,102.9,124.14,103.26z M130.47,117.94c-0.51,0.3-0.5,0.74-0.19,1.13
			c0.9,1.16,0.97,2.42,0.54,3.77c-0.06,0.19-0.03,0.41-0.04,0.63c1.15-0.16,1.06-0.16,1.09-1.03c0.04-1.07,0.25-2.13,0.17-3.21
			c0-0.04,0.03-0.08,0.04-0.13c0.09-0.64,0.18-1.29,0.24-1.7c-0.49-0.5-0.96-0.75-1.06-1.11c-0.24-0.88-0.05-1.82-0.21-2.73
			c-0.05-0.28,0.44-0.62,0.59-0.98c0.11-0.27,0.17-0.66,0.06-0.89c-0.33-0.65-0.08-1.11,0.34-1.56c0.15-0.16,0.36-0.33,0.4-0.52
			c0.05-0.24,0.05-0.58-0.09-0.74c-0.13-0.15-0.56-0.26-0.69-0.17c-0.45,0.33-1.02,0.69-1.18,1.16c-0.28,0.83-0.27,1.75-0.4,2.63
			c-0.06,0.42-0.05,0.91-0.26,1.24c-0.78,1.25-0.39,2.28,0.44,3.29c0.18,0.21,0.24,0.52,0.35,0.79
			C130.56,117.85,130.52,117.89,130.47,117.94z M118.16,114.17c-0.21,0.8-0.4,1.48-0.59,2.19c1.11,0.38,1.27-0.44,1.72-0.98
			C118.92,114.99,118.6,114.64,118.16,114.17z M131.76,103.67c0.51,0.34,0.82,0.55,1.42,0.95c-0.13-0.7-0.2-1.07-0.3-1.57
			C132.48,103.28,132.23,103.41,131.76,103.67z M122.27,100.03c-0.27-0.1-0.43-0.21-0.54-0.17c-0.12,0.04-0.2,0.21-0.29,0.33
			c0.13,0.08,0.26,0.22,0.38,0.21C121.94,100.38,122.05,100.22,122.27,100.03z"/>
		<path class="st0" d="M72.58,140.85c0.56-0.4,0.83-1.43,1.85-0.84c0.24-1.08,0.22-2.03-0.13-2.98c-0.13-0.36-0.12-0.78-0.15-1.18
			c-0.06-0.75-0.07-1.5-0.18-2.24c-0.15-0.97-0.06-1.27,0.75-1.8c0.81-0.54,1.58-1.14,2.42-1.62c0.82-0.48,1.73-0.45,2.54,0.01
			c0.92,0.52,1.5,1.35,1.76,2.39c0.17,0.66,0.56,1.27,0.38,2.02c-0.04,0.17,0.11,0.46,0.26,0.57c0.83,0.64,1.67,1.28,2.55,1.86
			c0.96,0.63,2.03,1.11,2.94,1.8c1.11,0.84,2.11,1.84,3.15,2.77c0.07,0.06,0.16,0.12,0.18,0.19c0.41,1.33,1.64,1.3,2.66,1.66
			c0.88,0.31,1.72,0.53,2.69,0.4c0.8-0.1,1.56,0.31,2.16,0.9c0.31,0.31,0.64,0.61,1.09,1.03c0.41-0.41,0.76-0.79,1.14-1.13
			c0.76-0.69,1.38-0.52,1.69,0.46c0.13,0.42,0.26,0.87,0.25,1.31c-0.02,1.44,0.47,2.89-0.19,4.34c-0.17,0.38,0.27,1.05,0.47,1.73
			c-0.99,0.71-2.01,1.37-3.46,0.92c-0.69-0.22-1.48-0.13-2.23-0.15c-0.26-0.01-0.54,0.16-0.79,0.12c-2.45-0.42-4.98,0.29-7.4-0.54
			c-0.31-0.11-0.79-0.11-1.04,0.06c-0.71,0.5-1.46,0.34-2.18,0.27c-2.12-0.21-4.24-0.1-6.36-0.2c-0.44-0.02-0.87-0.22-1.31-0.29
			c-1.01-0.15-2.02-0.29-3.03-0.4c-0.69-0.08-1.28-0.24-1.77-0.81c-0.54-0.63-1.19-1.17-1.8-1.74c-1.25-1.17-1.93-2.7-2.7-4.17
			c-0.53-1.02-0.17-1.94,0.35-2.74c0.6-0.92,0.88-1.83,0.71-2.91c-0.04-0.25-0.01-0.57,0.12-0.78c0.73-1.13,0.66-2.37,0.61-3.62
			c-0.05-1.2,0.39-1.78,1.46-2.1c0.55-0.16,1.05,0.17,0.83,0.63c-0.68,1.42-0.33,2.96-0.67,4.41
			C71.99,139.45,72.11,140.23,72.58,140.85z M98.53,150.02c1.15-0.72,0.53-1.79,0.73-2.7c-0.41,0.38-0.82,0.76-1.22,1.14
			C98.19,148.95,98.34,149.43,98.53,150.02z M72.42,143.79c-0.85,1.26-0.46,2.56,0.85,3.26C73.42,145.88,73.09,144.89,72.42,143.79z
			 M83.25,143.57c-0.03-0.03-0.06-0.06-0.1-0.08c0,0.09-0.03,0.19,0.01,0.26c0.23,0.44,0.23,0.86-0.11,1.24
			c-0.41,0.47-0.09,0.68,0.24,0.95C84.05,144.97,84.05,144.87,83.25,143.57z"/>
		<path class="st0" d="M103.71,114.51c0.28,0.3,0.63,0.6,0.85,0.97c0.13,0.22,0.17,0.73,0.04,0.82c-1.12,0.77-0.53,1.88-0.63,2.84
			c-0.02,0.21,0.09,0.43,0.13,0.6c-0.38,0.61-0.75,1.19-1.15,1.84c0.62,0.48,1.11,0.85,1.55,1.19c-0.42,1.1-1.68,1.11-1.79,2.31
			c-0.1,1.02,0.04,1.74,0.88,2.3c-0.21,0.47-0.38,0.86-0.58,1.32c0.95,0.44,1.73,1.22,2.99,0.47c-0.34-0.61-0.65-1.17-1.09-1.96
			c0.24-0.16,0.59-0.3,0.81-0.56c0.37-0.44,0.7-0.89,0.44-1.57c-0.21-0.55-0.13-1.12,0.41-1.57c0.49-0.41,0.38-0.88,0.14-1.44
			c-0.34-0.77-1.01-1.5-0.62-2.47c0.06-0.16,0.01-0.43,0.11-0.49c0.95-0.63,0.47-1.16-0.08-1.72c-0.15-0.15-0.24-0.37-0.35-0.55
			c0.22-0.71,0.8-0.79,1.3-0.65c0.46,0.13,1.08,0.1,1.24,0.81c0.14,0.63,0.7,1.14,0.43,1.89c-0.06,0.16,0.06,0.45,0.19,0.6
			c0.37,0.42,0.26,0.85,0.02,1.24c-0.35,0.57-0.24,1,0.22,1.42c0.94,0.84,1.2,2.02,1.55,3.15c0.25,0.81,0.4,1.64,1.52,1.78
			c0.29,0.04,0.7,0.74,0.7,1.14c0.01,1.01,0.48,1.58,1.39,1.85c0.1,1.09-0.54,1.78-1.15,2.36c-0.57,0.54-1.21,1.01-1.79,1.56
			c-0.62,0.58-1.53,0.88-2.36,1.22c-2.28,0.94-4.73,1.23-7.12,1.73c-0.99,0.2-1.33-0.08-2.03-1.25c0.5-0.65,0.82-1.36,0.73-2.28
			c-0.08-0.79,0.26-1.67-0.88-1.96c0.22-0.85,0.49-1.55-0.17-2.23c-0.21-0.21-0.19-0.79-0.08-1.14c0.4-1.2-0.08-2.31-0.29-3.42
			c-0.07-0.37-0.68-0.65-1.07-0.93c-0.28-0.2-0.66-0.29-0.9-0.52c-1.47-1.38-3.24-2.32-4.85-3.49c-0.8-0.58-1.62-1.47-1.55-2.72
			c0.04-0.61-0.04-1.2,0.36-1.77c0.15-0.21-0.04-0.67-0.1-1.01c-0.2-1.07,0.34-1.68,1.41-1.72c0.88-0.03,1.76-0.16,2.63-0.31
			c1.54-0.26,1.95-0.1,2.75,1.22c0.05,0.08,0.06,0.19,0.12,0.23c0.2,0.14,0.45,0.39,0.61,0.34c0.18-0.05,0.35-0.36,0.4-0.59
			c0.31-1.34,0.6-1.58,1.73-1.45c0.47,0.05,0.74,0.26,0.85,0.71c0.03,0.13,0.05,0.26,0.07,0.4
			C101.98,114.86,101.98,114.86,103.71,114.51z M98.58,122.17c0.59-0.03,1.17-0.06,1.88-0.1c-0.17-0.74-0.4-1.21-1.04-1.18
			C98.88,120.92,98.36,121.15,98.58,122.17z M102.7,121.02c-0.32-0.27-0.58-0.5-0.85-0.73c-0.12,0.04-0.24,0.08-0.35,0.12
			c-0.05,0.28-0.22,0.64-0.11,0.84C101.61,121.67,102.01,121.63,102.7,121.02z"/>
		<path class="st0" d="M55.43,90.61c0.22,0.62,0.62,0.87,1.3,0.42c0.44-0.29,0.92-0.54,1.46-0.85c0.51,0.54,1.13,0.78,1.89,0.95
			c0.86,0.19,1.62,0.88,2.24,1.25c0.58,0.88,1.04,1.67,1.6,2.38c0.3,0.38,0.47,0.71,0.46,1.19c-0.03,0.99,0.31,1.96-0.23,2.97
			c-0.26,0.5,0.05,1.28,0.04,1.94c-0.01,1.32-0.04,2.64-0.11,3.96c-0.02,0.29-0.15,0.64-0.35,0.83c-0.84,0.79-1.73,1.53-2.59,2.3
			c-0.46,0.41-1.05,0.76-1.35,1.27c-0.54,0.94-1.17,1.53-2.33,1.4c-0.38-0.04-0.79,0.26-1.16,0.21c-0.73-0.1-1.49,0.01-2.08-0.8
			c-0.38-0.53-1.37-0.58-1.94-1.03c-1.65-1.32-3.68-2.21-4.74-4.18c-0.13-0.25-0.21-0.55-0.22-0.83c-0.02-0.7,0.11-1.42-0.01-2.1
			c-0.17-1.03,0.16-1.81,0.82-2.56c0.33-0.38,0.53-0.89,0.76-1.36c0.08-0.15,0.01-0.4,0.11-0.51c1.1-1.2,1.03-2.72,1.17-4.17
			c0.05-0.55,0.26-0.88,0.75-1.15c0.36-0.2,0.77-0.52,0.92-0.89c0.35-0.88,1.09-0.83,1.76-0.85C54.13,90.37,54.7,90.52,55.43,90.61z
			 M56.34,95.05c-0.14,0.25-0.2,0.42-0.31,0.56c-1,1.33-1.61,2.97-3.19,3.84c-0.55,0.3-0.67,0.9-0.39,1.53
			c0.36,0.81,0.69,1.63,1,2.46c0.15,0.4,0.41,0.56,0.82,0.52c0.82-0.07,1.32-0.51,1.54-1.34c0.07-0.26,0.15-0.52,0.26-0.76
			c0.4-0.91,0.64-1.08,1.53-0.72c0.88,0.35,1.58-0.03,2.28-0.37c0.42-0.21,0.67-0.67,0.43-1.14c-0.45-0.88-0.28-1.71,0.09-2.55
			C59.25,96,58.1,95.04,56.34,95.05z"/>
		<path class="st0" d="M130.14,144.84c-0.67,0.1-1.28,0.19-1.94,0.29c-0.07,0.52,0.06,0.97,0.59,1.01c0.85,0.05,0.93,0.57,0.87,1.2
			c-0.08,0.84-0.19,1.68-0.29,2.51c-0.01,0.04-0.01,0.1-0.03,0.13c-0.24,0.32-0.43,0.84-0.73,0.91c-1.12,0.26-1.27,1.96-2.79,1.69
			c-1.31-0.23-2.55,0.34-3.62,1.09c-1.29,0.92-2.62,1.03-4.05,0.44c-0.45-0.19-0.88-0.45-1.35-0.6c-0.67-0.2-1.37-0.47-2.05-0.45
			c-0.78,0.02-1.09-0.29-1.4-0.93c-0.74-1.54-1.13-3.07-0.37-4.73c0.15-0.34,0.11-0.8,0.06-1.19c-0.26-2.21,0.52-4.11,1.72-5.88
			c0.47-0.69,1.14-0.56,1.65-0.42c1.65-1.21,3.13-2.43,4.75-3.42c0.58-0.35,1.52-0.23,2.27-0.11c1.8,0.29,3.31,1.29,4.8,2.27
			c0.19,0.12,0.34,0.37,0.53,0.4c1.19,0.18,1.53,0.94,1.43,2.01c1.18,0.21,2.38,0.09,3.43,0.81c0.89,0.61,1.09,1.39,0.86,2.33
			c-0.37,1.51-1.51,2.39-2.75,3.13c-0.6,0.35-1.09-0.01-1.2-0.74c-0.07-0.48-0.13-0.97-0.2-1.46
			C130.33,145.05,130.24,144.99,130.14,144.84z M120.41,145.52c-0.11-0.05-0.22-0.09-0.34-0.14c-0.25,0.48-0.59,0.94-0.72,1.45
			c-0.13,0.48,0.11,0.92,0.67,1.13C120.51,147.2,120.7,146.4,120.41,145.52z M126.62,147.03c-0.62-0.63-0.15-1.52-1.15-2.02
			c-0.17,0.69-0.33,1.29-0.51,2.02C125.5,147.03,125.92,147.03,126.62,147.03z"/>
		<path class="st0" d="M143.23,92.96c0.05-0.2,0.09-0.56,0.21-0.88c0.33-0.83,0.55-0.87,1.43-0.65c1.07,0.26,2.16,0.45,3.26,0.6
			c0.73,0.1,1.41,0.19,1.93,0.77c0.2,0.22,0.5,0.47,0.78,0.5c1.33,0.16,1.86,1.19,2.49,2.14c1.05,1.59,2.12,3.17,3.17,4.77
			c0.76,1.16,0.5,3.04-0.59,3.89c-0.85,0.66-1.33,1.51-1.71,2.5c-0.41,1.08-0.89,2.16-1.5,3.14c-0.61,0.98-1.62,1.5-2.77,1.66
			c-0.62,0.08-1.25,0.07-1.88,0.09c-0.98,0.02-1.95,0.02-2.93,0.05c-0.7,0.02-1.31-0.04-1.74-0.72c-0.18-0.29-0.49-0.54-0.79-0.71
			c-1.48-0.84-1.84-2.34-2.33-3.79c-0.17-0.51-0.41-0.99-0.64-1.51c0.12-0.2,0.29-0.42,0.39-0.66c0.17-0.39,0.34-0.77,0.87-0.59
			c0.56,0.18,0.94,0.84,0.77,1.39c-0.12,0.37-0.32,0.7-0.49,1.05c0.07,0.05,0.15,0.09,0.22,0.14c0.16-0.26,0.43-0.51,0.46-0.79
			c0.22-1.73,0.2-1.74,1.9-1.87c0.26-0.65,0.22-1.13-0.53-1.5c-0.27-0.13-0.44-0.64-0.49-1c-0.07-0.58,0.31-0.88,0.84-0.62
			c0.55,0.26,1.07,0.34,1.67,0.32c1.82-0.07,2.64,0.73,2.73,2.65c0.52,0.35,1.06,0.72,1.76,1.19c0.16-0.26,0.45-0.51,0.46-0.78
			c0.06-1.25,0.17-2.47,0.42-3.71c0.18-0.93-0.11-2.11-1.18-2.6c-1.41-0.64-2.37-1.65-3.06-3c-0.08-0.15-0.21-0.28-0.39-0.51
			c-0.5,0.88-0.92,1.73-1.45,2.51c-0.56,0.83-0.6,0.81-1.64,0.57c-0.61,0.38-0.31,1.56-1.56,1.55c0.18,0.57,0.34,1.11,0.52,1.63
			c0.3,0.87,0.15,1.5-0.48,2.06c-0.32,0.28-0.66,0.55-1.05,0.17c-0.36-0.35-0.63-0.79-0.28-1.3c0.12-0.17,0.31-0.29,0.52-0.48
			c-1.28-1.09-0.91-2.38-0.51-3.67c0.3-0.97,0.52-2,1.41-2.66C142,93.9,142.52,93.5,143.23,92.96z M144.31,105.8
			c0.32,0.54,0.51,0.98,0.81,1.34c0.17,0.2,0.7,0.4,0.73,0.36c0.34-0.48,0.66-0.98,0.86-1.52c0.05-0.14-0.31-0.45-0.51-0.67
			c-0.04-0.04-0.18-0.03-0.26,0C145.42,105.47,144.89,105.63,144.31,105.8z"/>
		<path class="st0" d="M101.28,104.23c-0.19,2.14,0.71,4.19-0.43,6.27c-0.52-0.6-0.96-1.07-1.35-1.58c-0.18-0.24-0.3-0.56-0.33-0.86
			c-0.18-1.42-0.51-2.77,0.25-4.25c0.63-1.22,0.85-2.74,0.06-4.13c-0.27-0.49-0.05-1,0.4-1.09c0.99-0.19,0.84-1.18,1.36-1.69
			c0.57-0.56,0.38-1.22,0.25-1.97c-0.22-1.21-0.11-2.47-0.22-3.71c-0.06-0.64-0.3-1.26-0.49-1.99c-1.23,0.09-1.75-0.68-1.85-1.86
			c-0.33,0.06-0.59,0.11-0.91,0.17c-0.55-0.65-0.95-1.38-0.61-2.26c0.2-0.52,0.67-0.73,1.39-0.17c-0.06-0.62-0.11-1.03-0.15-1.43
			c-1.14,0.04-1.66-0.38-1.8-1.33c-0.08-0.5,0.3-0.94,0.94-1.09c1.32-0.32,1.32-0.32,1.05-1.64c-0.08-0.39-0.19-0.78-0.26-1.17
			c-0.1-0.56-0.06-0.67,0.52-1.47c0.64,0.08,1.11,0.83,1.95,0.52c0.42-0.15,0.74,0.35,0.75,0.89c0.02,0.77-0.11,0.94-1,1.16
			c0.22,0.27,0.66,0.59,0.62,0.81c-0.06,0.28-0.5,0.49-0.92,0.84c0.03,0.21,0.08,0.6,0.14,0.98c0.13,0.88,0.28,1.73-0.24,2.6
			c-0.21,0.34-0.09,0.93,0,1.39c0.1,0.51,0.33,1,0.54,1.59c0.24,0.02,0.56-0.03,0.83,0.07c0.35,0.13,0.88,0.32,0.96,0.59
			c0.49,1.66,1.94,2.59,2.93,4.04c-0.68,0.3-1.25,0.71-0.82,1.67c0.35,0.15,0.79,0.34,1.35,0.58c-0.54,1.42-1.09,2.77-1.55,4.16
			c-0.12,0.36-0.07,0.9,0.12,1.22c0.61,1.02,0.68,1.54,0.11,2.78c-0.39,0-0.82,0-1.42,0c0.46,0.95,1.06,1.54,1.75,2.01
			c0.95,0.66,1.24,1.44,1.03,2.6c-0.13,0.74,0.14,1.56,0.27,2.63c0.35-0.56,0.56-0.91,0.77-1.25c1.21,0.39,1.36,0.6,1.07,1.75
			c-0.27,1.06,0.11,1.89,0.86,2.86c0.35-0.62,0.61-1.11,0.91-1.58c0.45-0.72,0.91-0.75,1.24,0.01c0.42,0.98,1.06,1.93,0.79,3.11
			c-0.07,0.3,0.17,0.66,0.26,1c0.08,0.32,0.13,0.64,0.2,1c-0.8,0.1-1-0.36-1.21-0.79c-0.5-1.02-0.64-1.09-1.75-0.94
			c-1.27,0.18-1.71-0.08-2.26-1.24c-0.16-0.34-0.43-0.65-0.7-0.92c-0.21-0.22-0.5-0.36-0.74-0.56c-0.3-0.25-0.54-0.62-0.88-0.74
			c-0.14-0.05-0.44,0.45-0.71,0.6c-0.21,0.12-0.5,0.08-0.63,0.1c-0.26-0.5-0.47-0.89-0.68-1.28c-0.5-0.94-0.62-1.96-0.52-2.99
			c0.13-1.26-0.54-2.33-0.72-3.51C101.77,104.55,101.46,104.4,101.28,104.23z M101.32,102.31c0.73-1.17,0.73-1.17-0.01-1.7
			C100.79,101.18,101.08,101.73,101.32,102.31z M102.73,100.75c-0.17,0.6,0.02,0.87,0.52,0.92c0.09,0.01,0.26-0.14,0.28-0.22
			C103.59,100.92,103.3,100.74,102.73,100.75z"/>
		<path class="st0" d="M99.76,135.92c-1.15,0.22-2.01,0.35-2.85,0.54c-0.91,0.21-1.72,0.12-2.54-0.4c-0.29-0.19-0.84,0-1.26,0.06
			c-0.61,0.09-1.21,0.27-1.83,0.29c-0.23,0.01-0.67-0.31-0.67-0.48c0.01-1.62-1.22-2.33-2.3-3.05c-1.17-0.77-1.87-1.74-1.95-3.14
			c-0.03-0.52-0.29-0.83-0.76-0.99c-0.21-0.07-0.44-0.08-0.64-0.17c-0.57-0.25-0.82-0.79-0.73-1.31c0.06-0.35,0.46-0.74,0.81-0.92
			c0.82-0.4,1.86-0.21,2.61-0.88c0.87,0.34,1.98-0.15,2.68,0.82c0.68,0.95,1.7,0.48,2.59,0.54c0.21,0.01,0.43-0.09,0.65-0.14
			c1.3-0.27,1.57-0.15,2.3,1.05c0.4-0.04,0.84-0.11,1.28-0.14c0.81-0.06,1.01,0.13,1.14,0.92c0.23,1.4,0.23,2.85,1.06,4.1
			c0.11,0.18,0.09,0.6-0.05,0.76C98.53,134.25,98.82,135,99.76,135.92z"/>
		<path class="st0" d="M113.6,84.45c0.09,0.39,0.17,0.77,0.26,1.16c0.1,0,0.2,0,0.3,0c0.1-0.4,0.21-0.8,0.31-1.2
			c0.14-0.59,0.45-0.98,1.02-1.3c0.94-0.53,1.88-1.14,2.65-1.9c0.61-0.61,1.25-0.44,1.85-0.36c0.46,0.07,0.94,0.37,1,1.06
			c0.04,0.5,0.32,1.02,0.61,1.46c1.08,1.67,1.25,3.44,0.71,5.3c-0.19,0.67-0.46,1.32-0.66,1.99c-0.26,0.9-0.94,1.16-1.72,0.62
			c-0.64-0.45-1.23-0.91-0.87-1.87c0.11-0.29-0.03-0.66-0.05-1c-0.09-0.01-0.18-0.02-0.26-0.03c-0.13,0.5-0.26,1-0.39,1.49
			c-2.2-0.48-2.83-0.94-4.27-3.12c-0.22,1.3-1.11,1.65-2.17,1.76c-1.29-1.03-1.36-1.76-0.32-2.98c0.26-0.31,0.52-0.62,0.8-0.9
			C112.77,84.29,113.15,84.1,113.6,84.45z"/>
		<path class="st0" d="M113.33,98.78c0.62,0.43,0.85,0.88,0.57,1.62c-0.27,0.69,0.09,1.37,0.44,1.98c0.68,1.17,0.02,2.64-1.29,2.79
			c-0.75,0.08-1.51,0.12-2.25,0.08c-1.63-0.08-2.93-1.5-2.99-3.18c0-0.04,0.01-0.09,0-0.13c-0.55-1.65,0.14-3.14,0.63-4.65
			c0.07-0.2,0.16-0.43,0.31-0.57c0.77-0.74,1.54-1.48,2.35-2.18c0.71-0.62,1.1-0.5,1.52,0.37c0.21,0.44,0.4,0.9,0.66,1.31
			C113.9,97.22,113.93,97.42,113.33,98.78z M111.91,97.3c-0.09-0.07-0.17-0.14-0.26-0.2c-0.12,0.2-0.24,0.4-0.37,0.6
			c0.06,0.04,0.13,0.09,0.19,0.13C111.62,97.65,111.77,97.47,111.91,97.3z"/>
		<path class="st0" d="M90.54,118.2c-1.21,0.34-2.3,0.7-3.41,0.94c-0.64,0.14-1.33,0.15-1.99,0.11c-0.77-0.05-1.15-0.56-0.92-1.27
			c0.2-0.61,0.17-0.94-0.39-1.34c-0.77-0.53-0.75-1.1-0.06-1.76c0.18-0.18,0.44-0.28,0.66-0.43c0.65-0.43,1.32-0.77,1.24-1.8
			c-0.04-0.51,0.41-1.05,0.71-1.74c0.66,0.33,1.33,0.63,1.94,1.01c0.17,0.1,0.31,0.51,0.24,0.69c-0.35,0.9,0.17,1.48,0.72,1.98
			C90.39,115.6,90.29,116.94,90.54,118.2z"/>
		<path class="st0" d="M110.26,142.65c0.44,0.23,1.09,0.35,1.26,0.7c0.28,0.59,0.66,1.33,0.04,2c-0.41,0.45-0.49,0.97-0.5,1.58
			c-0.02,1.1-0.28,2.2-0.3,3.31c-0.01,0.6,0.26,1.21,0.43,1.8c0.21,0.74,0.1,0.97-0.64,1.15c-0.43,0.11-0.88,0.16-1.31,0.27
			c-1.17,0.29-1.91-0.27-1.82-1.47c0.17-2.13,0.4-4.25,0.6-6.37c0.02-0.27,0.01-0.54,0.03-0.8
			C108.19,143.38,108.76,142.85,110.26,142.65z"/>
		<path class="st0" d="M122.9,72.02c0.69,0.7,1.43,1.45,2.18,2.19c0.31,0.31,0.67,0.57,0.99,0.88c0.44,0.43,0.9,0.85,1.26,1.34
			c0.41,0.55,0.26,1.2-0.37,1.38c-0.97,0.28-1.97,0.48-2.97,0.56c-0.34,0.02-0.84-0.37-1.05-0.7c-0.64-1-1.01-2.13-1.75-3.11
			C120.56,73.73,121.44,72.46,122.9,72.02z"/>
		<path class="st0" d="M105.98,147.85c-0.17,0.87-0.07,1.41,0.46,1.99c0.66,0.73,0.01,2.96-0.87,3.5c-0.52,0.32-1.75-0.09-1.95-0.68
			c-0.13-0.38-0.23-0.79-0.21-1.18c0.13-2.04,0.29-4.08,0.46-6.11c0.04-0.51-0.07-1.15,0.64-1.32c0.43-0.1,0.84,0.4,1.01,1.22
			C105.71,146.18,105.85,147.1,105.98,147.85z"/>
		<path class="st0" d="M109.44,82.25c0.68,0.74,0.4,1.42,0.31,2.03c-0.1,0.62-0.2,1.14,0.07,1.79c0.44,1.05-0.48,2.13-1.62,2.14
			c-0.42,0-0.9,0.05-1.26,0.26c-0.73,0.42-1.33,0.42-1.96-0.29c0.17-0.58,0.78-1.14,0.27-1.9c-0.09-0.14,0.31-0.69,0.57-0.97
			c0.93-1,1.17-1.04,2.42-0.53C108.63,83.98,109.01,83.17,109.44,82.25z"/>
		<path class="st0" d="M90.53,104.88c-0.44,0.21-0.99,0.47-1.55,0.74c-0.71-0.51-1.43-1.01-2.12-1.55c-0.43-0.34-0.4-0.52,0-1.59
			c1.15-0.4,2.06,0.26,2.99,0.74c1.02,0.52,1.01,0.55,1.76-0.32c0.17-0.2,0.36-0.39,0.56-0.57c0.13-0.11,0.29-0.19,0.42-0.27
			c1.39,1.04,1.72,2.09,1.07,3.33c-0.28,0.53-0.66,0.85-1.29,0.49C91.83,105.58,91.29,105.29,90.53,104.88z"/>
		<path class="st0" d="M114.9,78.56c-0.34-0.5-0.6-0.88-0.87-1.29c0.29-0.24,0.49-0.4,0.65-0.53c-0.1-0.55-0.31-1.07-0.27-1.58
			c0.04-0.5,0.33-0.99,0.52-1.49c1.04-0.4,1.83-0.21,2.5,0.57c0.17,0.2,0.4,0.34,0.58,0.53c0.81,0.87,0.57,1.73-0.53,2.12
			c-0.36,0.13-0.68,0.38-1,0.59c-0.22,0.15-0.4,0.35-0.62,0.5C115.63,78.16,115.35,78.3,114.9,78.56z"/>
		<path class="st0" d="M89.67,96.1c0,0.75,0,1.55,0,2.41c-0.09,0.06-0.22,0.2-0.38,0.23c-1.28,0.28-1.26,0.28-0.88,1.5
			c0.08,0.27,0,0.74-0.2,0.91c-0.22,0.19-0.67,0.25-0.97,0.17c-0.68-0.19-1.3-1.67-1.07-2.35c0.13-0.41,0.27-0.83,0.32-1.26
			C86.68,96.11,88.06,95.37,89.67,96.1z"/>
		<path class="st0" d="M100.07,93.16c0.27,1.08,0.52,1.84,0.63,2.62c0.11,0.74-0.52,1.06-1.08,1.52c-0.75-0.48-1.52-0.96-2.35-1.49
			c-0.42,0.52-0.78,0.96-1.12,1.38c-1.2-0.5-1.2-0.5-0.99-2.24c1.1,0,2.22,0.06,3.33-0.04c0.36-0.03,0.69-0.48,1-0.78
			C99.66,93.94,99.77,93.67,100.07,93.16z"/>
		<path class="st0" d="M109.69,80.63c-0.51-0.24-1.03-0.49-1.74-0.82c-0.01-1.08-0.07-2.27,0.01-3.44c0.03-0.35,0.49-0.66,0.75-0.99
			c0.28,0.24,0.64,0.44,0.83,0.74c0.32,0.52,0.55,1.09,0.8,1.65C110.84,78.89,110.58,80.05,109.69,80.63z"/>
		<path class="st0" d="M94.87,91.68c1.38,0.48,1.38,0.48,1.37,2.05c-0.57,0.25-1.15,0.5-1.75,0.76c-0.88-0.62-0.93-0.78-0.47-1.53
			c0.14-0.22,0.3-0.44,0.44-0.66C94.59,92.12,94.7,91.94,94.87,91.68z"/>
		<path class="st0" d="M104.66,70.95c1.41,1.54,1.32,3.06,1.37,4.59c-0.94,0.18-1.34-0.17-1.51-0.88
			C104.23,73.48,104.3,72.33,104.66,70.95z"/>
		<path class="st0" d="M105.06,62.84c0.2,0.78,0.39,1.57,0.62,2.35c0.1,0.33,0.3,0.63,0.4,0.96c0.15,0.45,0.14,0.95-0.33,1.16
			c-0.44,0.19-0.72-0.11-0.84-0.57c-0.03-0.12-0.15-0.25-0.27-0.3c-0.77-0.37-1-0.75-0.75-1.48c0.24-0.7,0.56-1.37,0.84-2.06
			C104.84,62.87,104.95,62.86,105.06,62.84z"/>
		<path class="st0" d="M99.78,92.41c-0.31-0.17-0.59-0.23-0.66-0.38c-0.12-0.29-0.26-0.71-0.13-0.94c0.24-0.43,0.65-0.78,1.01-1.14
			c0.04-0.04,0.32,0.05,0.34,0.13c0.14,0.4,0.41,0.86,0.31,1.21C100.54,91.69,100.1,92.02,99.78,92.41z"/>
		<path class="st0" d="M115.21,101.41c-0.05-0.64-0.15-1.13-0.09-1.6c0.03-0.22,0.36-0.48,0.6-0.56c0.13-0.04,0.46,0.23,0.54,0.43
			c0.23,0.53,0.43,1.07,0.11,1.67c-0.18,0.34-0.18,0.78-0.35,1.13c-0.09,0.2-0.35,0.33-0.53,0.5c-0.16-0.22-0.43-0.44-0.45-0.68
			C115.02,101.96,115.17,101.61,115.21,101.41z"/>
		<path class="st0" d="M92.49,100.51c-0.38,0.41-0.76,0.65-1.31-0.27c0.53-0.04,0.9-0.07,1.27-0.1
			C92.47,100.26,92.48,100.38,92.49,100.51z"/>
		<path class="st0" d="M109.16,81.67c0.02,0.03,0.06,0.05,0.06,0.08c0,0.03-0.05,0.05-0.07,0.07c-0.02-0.03-0.06-0.05-0.06-0.08
			C109.09,81.71,109.14,81.69,109.16,81.67z"/>
		<path class="st0" d="M81.29,59.36c0.08-0.5,0.16-0.94,0.23-1.37c1.56-0.97,1.56-0.97,2.25-0.7c0.03,0.57-0.31,0.79-0.81,0.79
			c-0.53,0-0.97,0.11-1.14,0.76c0.19,0.15,0.38,0.31,0.64,0.53C82.01,59.36,81.65,59.36,81.29,59.36z"/>
		<path class="st0" d="M112.28,66.06c0.36-0.68,0.64-1.22,0.95-1.8c0.74,0.37,0.48,1.09,0.61,1.63c0.02,0.1-0.42,0.43-0.67,0.46
			C112.9,66.38,112.6,66.17,112.28,66.06z"/>
		<path class="st0" d="M128.39,67.09c0.17-0.97,0.3-1.69,0.43-2.4C129.61,65.59,129.56,66.13,128.39,67.09z"/>
		<path class="st0" d="M113.16,61.84c-0.31-0.68-0.47-1.33,0.42-1.84C113.91,60.74,113.53,61.29,113.16,61.84z"/>
		<path class="st0" d="M100.11,67.58c-0.45-0.57-1.02-1.11-0.8-1.87c0.1-0.03,0.2-0.06,0.3-0.09
			C99.77,66.28,99.94,66.93,100.11,67.58z"/>
		<path class="st0" d="M95.4,59.72c-0.02-0.21-0.05-0.26-0.03-0.29c0.32-0.57,0.82-0.62,1.35-0.41c0.12,0.05,0.25,0.43,0.18,0.53
			C96.48,60.22,95.94,59.91,95.4,59.72z"/>
		<path class="st0" d="M79.86,60.63c0.47-0.21,0.7-0.3,0.95-0.41C80.65,60.84,80.65,60.84,79.86,60.63z"/>
		<path class="st0" d="M78.67,61.18c0.11-0.24,0.15-0.55,0.33-0.7c0.19-0.16,0.36,0.19,0.18,0.5c-0.06,0.11-0.15,0.2-0.23,0.29
			C78.86,61.24,78.76,61.21,78.67,61.18z"/>
		<path class="st0" d="M91.73,74.72c-0.03,0.02-0.05,0.06-0.08,0.06c-0.03,0-0.05-0.04-0.08-0.07c0.03-0.02,0.05-0.07,0.08-0.07
			C91.68,74.65,91.71,74.69,91.73,74.72z"/>
		<path class="st0" d="M130.61,117.8c-0.12-0.27-0.18-0.58-0.35-0.79c-0.84-1.01-1.23-2.04-0.44-3.29c0.21-0.34,0.2-0.82,0.26-1.24
			c0.13-0.88,0.13-1.8,0.4-2.63c0.16-0.47,0.73-0.83,1.18-1.16c0.13-0.1,0.56,0.01,0.69,0.17c0.14,0.16,0.14,0.5,0.09,0.74
			c-0.04,0.2-0.25,0.36-0.4,0.52c-0.42,0.46-0.68,0.91-0.34,1.56c0.12,0.23,0.05,0.62-0.06,0.89c-0.14,0.35-0.64,0.7-0.59,0.98
			c0.16,0.92-0.04,1.86,0.21,2.73c0.1,0.36,0.57,0.61,1.06,1.11c-0.06,0.41-0.15,1.05-0.24,1.7c-0.01,0.04-0.04,0.09-0.04,0.13
			c0.08,1.08-0.13,2.14-0.17,3.21c-0.03,0.87,0.06,0.88-1.09,1.03c0.01-0.22-0.02-0.44,0.04-0.63c0.43-1.35,0.36-2.6-0.54-3.77
			c-0.3-0.39-0.31-0.83,0.19-1.13c0.08,0.07,0.16,0.15,0.24,0.22C130.67,118.04,130.64,117.92,130.61,117.8z"/>
		<path class="st0" d="M118.16,114.17c0.44,0.47,0.76,0.82,1.13,1.22c-0.45,0.54-0.61,1.36-1.72,0.98
			C117.76,115.64,117.94,114.97,118.16,114.17z"/>
		<path class="st0" d="M131.76,103.67c0.47-0.26,0.71-0.39,1.13-0.62c0.1,0.51,0.17,0.88,0.3,1.57
			C132.58,104.22,132.28,104.02,131.76,103.67z"/>
		<path class="st0" d="M122.27,100.03c-0.23,0.19-0.33,0.35-0.46,0.37c-0.12,0.01-0.25-0.13-0.38-0.21c0.1-0.12,0.17-0.29,0.29-0.33
			C121.84,99.82,122,99.94,122.27,100.03z"/>
		<path class="st0" d="M98.53,150.02c-0.19-0.6-0.34-1.08-0.49-1.56c0.4-0.38,0.81-0.76,1.22-1.14
			C99.06,148.23,99.67,149.31,98.53,150.02z"/>
		<path class="st0" d="M72.42,143.79c0.67,1.1,1,2.1,0.85,3.26C71.96,146.35,71.57,145.05,72.42,143.79z"/>
		<path class="st0" d="M83.25,143.57c0.8,1.3,0.81,1.4,0.05,2.36c-0.32-0.27-0.65-0.48-0.24-0.95c0.34-0.38,0.34-0.8,0.11-1.24
			c-0.04-0.07-0.01-0.17-0.01-0.26C83.18,143.52,83.21,143.55,83.25,143.57z"/>
		<path class="st0" d="M98.58,122.17c-0.22-1.02,0.3-1.25,0.85-1.28c0.63-0.03,0.87,0.44,1.04,1.18
			C99.75,122.11,99.17,122.14,98.58,122.17z"/>
		<path class="st0" d="M102.7,121.02c-0.7,0.61-1.09,0.65-1.32,0.23c-0.11-0.2,0.07-0.55,0.11-0.84c0.12-0.04,0.24-0.08,0.35-0.12
			C102.12,120.52,102.39,120.75,102.7,121.02z"/>
		<path class="st0" d="M120.41,145.52c0.29,0.87,0.1,1.68-0.39,2.44c-0.56-0.2-0.8-0.64-0.67-1.13c0.14-0.51,0.47-0.97,0.72-1.45
			C120.18,145.43,120.3,145.48,120.41,145.52z"/>
		<path class="st0" d="M126.62,147.03c-0.71,0-1.12,0-1.66,0c0.18-0.72,0.34-1.33,0.51-2.02C126.48,145.51,126,146.4,126.62,147.03z
			"/>
		<path class="st0" d="M144.31,105.8c0.58-0.17,1.11-0.34,1.65-0.49c0.08-0.02,0.22-0.04,0.26,0c0.19,0.21,0.56,0.52,0.51,0.67
			c-0.2,0.54-0.53,1.05-0.86,1.52c-0.03,0.04-0.56-0.16-0.73-0.36C144.83,106.78,144.63,106.34,144.31,105.8z"/>
		<path class="st0" d="M101.32,102.31c-0.24-0.57-0.53-1.13-0.01-1.7C102.05,101.14,102.05,101.14,101.32,102.31z"/>
		<path class="st0" d="M102.73,100.75c0.57-0.02,0.86,0.17,0.8,0.69c-0.01,0.09-0.19,0.23-0.28,0.22
			C102.75,101.63,102.56,101.35,102.73,100.75z"/>
		<path class="st0" d="M111.91,97.3c-0.14,0.18-0.29,0.35-0.43,0.53c-0.06-0.04-0.13-0.09-0.19-0.13c0.12-0.2,0.24-0.4,0.37-0.6
			C111.74,97.16,111.83,97.23,111.91,97.3z"/>
		<path class="st0" d="M130.61,117.8c0.03,0.12,0.07,0.24,0.1,0.36c-0.08-0.07-0.16-0.15-0.24-0.22
			C130.52,117.89,130.56,117.85,130.61,117.8z"/>
	</g>
</g>
</svg>
