<?xml version="1.0" encoding="utf-8"?>
<!-- Generator: Adobe Illustrator 23.0.3, SVG Export Plug-In . SVG Version: 6.00 Build 0)  -->
<svg version="1.1" id="Layer_1" xmlns="http://www.w3.org/2000/svg" xmlns:xlink="http://www.w3.org/1999/xlink" x="0px" y="0px"
	 viewBox="0 0 200 200" style="enable-background:new 0 0 200 200;" xml:space="preserve">
<style type="text/css">
	.st0{fill:#F9DCDC;}
	.st1{fill:#EA4336;}
</style>
<path class="st0" d="M176.29,197.29H23.71c-11.55,0-21-9.45-21-21V23.71c0-11.55,9.45-21,21-21h152.58c11.55,0,21,9.45,21,21v152.58
	C197.29,187.84,187.84,197.29,176.29,197.29z"/>
<g>
	<g>
		<path class="st1" d="M139.28,53.81c-1.72,0.2-2.79-1.16-3.36-2.32c-0.75-1.53-1.77-1.72-3.12-1.68c-0.62,0.02-1.24,0.07-1.95,0.11
			c-0.16,0.5-0.32,0.99-0.49,1.52c-0.28-1-0.54-1.93-0.84-3.03c-0.53,0.24-0.93,0.3-1.14,0.53c-0.73,0.83-1.53,1.39-2.7,1.39
			c-0.64,0-0.98,0.46-0.98,1.14c0.03,2.19-0.82,4.11-1.84,5.98c-0.57,1.03-1.08,1.24-2.08,0.66c-0.72-0.42-1.33-1.04-1.99-1.58
			c-0.23-0.19-0.43-0.49-0.69-0.55c-1.37-0.35-2.75-0.65-4.23-0.98c-0.29-1.08-0.6-2.2-0.96-3.55c0.87-0.81,0.76-2.08,0.7-3.33
			c-0.07-1.41-0.87-2.08-2.27-1.91c-1.29,0.16-2.5,0.17-3.38-1.02c-0.17-0.23-0.51-0.33-0.85-0.54c-0.48,0.42-0.93,0.81-1.37,1.2
			c-0.98-0.69-1.5-1.9-1.24-2.82c0.55-1.95,0.55-1.95,0.15-3.89c-1.97-0.26-2.56,0.23-2.11,2c0.27,1.06-0.02,1.8-0.77,2.5
			c0.3,0.43,0.59,0.76,0.79,1.14c0.17,0.32,0.4,0.7,0.36,1.02c-0.16,1.4-0.42,2.78-0.64,4.17c-0.04,0.24-0.21,0.53-0.13,0.72
			c0.49,1.1-0.07,1.78-0.9,2.29c0.05,0.69,0.15,1.3,0.14,1.91c-0.04,1.37-0.05,2.69,0.64,3.98c0.82,1.53,0.46,3.17,0.04,4.76
			c-0.19,0.71-0.8,0.88-1.32,0.48c-1.31-1.04-1.55-2.65-1.97-4.15c-0.27-0.94,0.26-1.53,0.89-2.08c-0.18-0.56-0.4-1.11-0.52-1.68
			c-0.2-0.94-0.49-1.73-1.46-2.23c-1.28-0.65-0.96-2.05-1.09-3.16c-0.1-0.84,0.13-1.49,1.06-2.12c0.89-0.61,1.43-1.96,1.74-3.09
			c0.17-0.61-0.47-1.43-0.76-2.22c-1.02,0.43-1.8,0.77-2.7,1.15c-0.43-0.61-0.81-1.15-1.23-1.76c-0.57,0.15-0.75,0.58-0.67,1.11
			c0.24,1.61-0.47,2.68-1.92,3.23c-0.77,0.29-1.15,0.73-1.01,1.54c0.16,0.89-0.96,1.74-0.07,2.64c-1.57,1.25,0.37,3.4-1.39,4.61
			c0.53,0.47,0.95,0.83,1.47,1.29c-0.55,0.71-0.92,1.52,0.07,2.18c1.55,1.02,1.27,2.55,1.14,4.03c-0.05,0.55-0.25,1.09-0.4,1.63
			c-0.32,1.17-1.49,1.79-2.4,1.03c-1.07-0.9-2.17-1.1-3.4-0.86c-0.92-1.14-0.26-1.91,0.46-2.61c-0.51-0.6-1.01-1.13-1.42-1.72
			c-0.2-0.29-0.37-0.7-0.34-1.04c0.17-2.16,0.4-4.31,0.62-6.55c0.34,0.12,0.76,0.38,1.2,0.4c0.74,0.03,1.14-0.5,1.22-1.17
			c0.09-0.78-0.49-0.95-1.1-0.9c-0.78,0.05-1.53,0.14-1.81-0.84c-0.27-0.96-0.18-1.76,0.54-2.59c0.72-0.82,1.28-1.83,1.74-2.83
			c0.19-0.43,0.12-1.14-0.14-1.54c-0.15-0.24-0.88-0.18-1.34-0.15c-0.78,0.05-1.28,0.41-1.74,1.16c-0.46,0.77-1.31,1.41-2.13,1.82
			c-2.18,1.11-2.93,3.28-4.06,5.16c-0.3,0.49-0.49,1.3-0.29,1.79c0.82,2.08,0.13,4.42,1.3,6.46c0.49,0.86,0.44,1.98,1.22,2.83
			c0.32,0.35,0.15,1.15,0.22,1.98c-1.23-0.39-2.24-0.62-3.17-1.03c-0.38-0.17-0.84-0.74-0.82-1.11c0.06-1.14-0.43-1.96-1.26-2.57
			c-0.87-0.65-0.87-1.55-0.3-2.12c1.23-1.23,1.05-2.62,0.95-4.11c-0.18-2.6-0.14-2.61,1.03-4.62c-0.43-0.51-0.81-1.03-1.27-1.48
			c-0.75-0.74-1.59-0.62-1.89,0.37c-0.35,1.14-1.41,2.14-0.75,3.54c0.11,0.22-0.26,0.9-0.55,1.02c-0.38,0.16-0.97,0.11-1.36-0.08
			c-0.66-0.32-1.18-1.01-1.85-1.2c-1-0.27-2.09-0.36-3.13-0.31c-2.02,0.09-2.88-0.72-2.63-2.73c0.04-0.3,0.14-0.6,0.23-0.96
			c-0.27-0.25-0.51-0.54-0.82-0.74c-0.25-0.16-0.56-0.22-0.92-0.35c-0.51,1.1-0.84,2.14-0.52,3.29c0.03,0.12,0.07,0.24,0.08,0.36
			c0.28,3.03-0.49,4.07-3.5,4.76c-0.69,0.16-1.22-0.12-1.24-0.76c-0.06-2.28-0.91-4.56,0.05-6.84c0.26-0.61,0.23-1.33,0.37-1.99
			c0.39-1.87,1.8-2.99,3.29-3.8c1.08-0.59,2.04-1.23,2.7-2.21c0.7-1.04,1.61-1.29,2.74-1.2c0.69,0.06,1.37,0.13,2.06,0.14
			c0.37,0.01,0.88,0.05,1.08-0.16c1.05-1.07,2.52-1.04,3.8-1.44c0.82-0.26,1.88-0.2,2.71,0.07c0.67,0.22,1.17,0.2,1.76-0.04
			c2.38-0.94,4.73-0.88,7.07,0.2c0.34,0.16,0.86,0.13,1.23,0.01c2.56-0.87,5.1-1.34,7.87-0.92c1.88,0.29,3.88,0.08,5.78-0.21
			c1.01-0.15,1.69,0.06,2.37,0.66c0.37,0.33,0.66,0.77,1.06,1.04c0.59,0.41,1.41,0.7,1.88,0.04c1.18-1.65,2.91-1.26,4.45-1.26
			c2.67-0.01,5.33-0.14,8.01,0.32c1.49,0.26,3.11,0.03,4.64-0.2c1.14-0.17,2.16-0.49,3.06,0.55c0.13,0.15,0.59-0.01,0.89-0.01
			c2.3,0,4.6,0.03,6.9,0.01c1.25-0.01,2.15,0.51,2.76,1.58c0.12,0.22,0.29,0.41,0.45,0.63c2.02-0.94,3.92-0.21,5.74,0.16
			c1.45,0.29,3.09,0.57,4.21,1.79c1.54,1.7,2.71,3.67,3.52,5.77c0.31,0.81-0.11,1.94-0.32,2.9c-0.2,0.89-0.3,1.7,0.25,2.51
			c0.19,0.29,0.33,0.69,0.32,1.03c-0.05,1.59-0.44,3.23-0.2,4.77c0.42,2.64-0.45,5.32,0.48,7.95c0.69,1.97-0.76,3.47-2.84,3.13
			c-1.53-0.25-3.05-0.58-4.56-0.92c-0.93-0.21-2.05-1.68-2.21-2.68c-0.23-1.48-0.35-2.89,0.21-4.38c0.47-1.25-0.17-2.72,0.58-4.01
			c0.14-0.24-0.22-0.8-0.4-1.19C139.98,55.14,139.62,54.49,139.28,53.81z M73.04,41.29c0.5,0,1,0,1.64,0
			c-0.37-0.31-0.64-0.53-0.9-0.74c0.23-0.9,0.85-1.05,1.59-1.06c0.71,0,1.18-0.3,1.14-1.1c-0.97-0.38-0.97-0.38-3.15,0.98
			C73.26,39.98,73.15,40.58,73.04,41.29z M116.33,50.66c0.45,0.16,0.86,0.44,1.25,0.4c0.35-0.03,0.97-0.5,0.93-0.64
			c-0.19-0.75,0.18-1.76-0.85-2.27C117.23,48.96,116.84,49.7,116.33,50.66z M138.84,52.1c1.64-1.34,1.7-2.1,0.6-3.35
			C139.25,49.74,139.08,50.74,138.84,52.1z M117.56,44.76c0.51-0.77,1.04-1.54,0.58-2.57C116.91,42.91,117.12,43.81,117.56,44.76z
			 M99.32,52.78c-0.23-0.91-0.47-1.82-0.7-2.73c-0.14,0.04-0.28,0.08-0.42,0.12C97.9,51.23,98.7,51.99,99.32,52.78z M92.74,41.79
			c0.75,0.27,1.51,0.71,2.1-0.23c0.09-0.15-0.09-0.68-0.25-0.75c-0.74-0.3-1.44-0.22-1.89,0.57C92.68,41.43,92.71,41.5,92.74,41.79z
			 M71.03,43.07c1.11,0.3,1.11,0.3,1.33-0.58C72,42.65,71.69,42.78,71.03,43.07z M69.37,43.83c0.13,0.05,0.26,0.09,0.39,0.14
			c0.11-0.14,0.23-0.26,0.32-0.41c0.26-0.43,0.02-0.93-0.25-0.7C69.59,43.07,69.52,43.5,69.37,43.83z M87.62,62.75
			c-0.04-0.03-0.07-0.09-0.11-0.09c-0.04,0-0.07,0.06-0.11,0.09c0.04,0.03,0.07,0.09,0.11,0.09C87.55,62.84,87.59,62.78,87.62,62.75
			z"/>
		<path class="st1" d="M73.5,80.05c0.77,0.48,1.43,0.9,2.11,1.33c0.9-0.67,1.02-1.42,1.01-2.46c-0.01-1.98-0.5-3.93-0.21-5.94
			c0.14-0.98,0.46-1.78,0.98-2.56c0.21-0.31,0.56-0.57,0.65-0.9c0.38-1.42,1.46-1.72,2.67-1.87c0.1,0.15,0.24,0.28,0.21,0.36
			c-0.44,1.47-0.4,2.81,0.84,3.94c0.2,0.18,0.26,0.56,0.31,0.86c0.13,0.76,0.56,1.28,1.3,1.42c1.48,0.29,1.85,1.32,1.85,2.62
			c0,0.44,0,0.87,0,1.4c0.99,0.34,1.29,1.96,2.78,1.36c0.78,0.85,1.82,1.58,2.27,2.58c0.42,0.95,0.45,2.24-0.78,3.05
			c-0.59-0.39-1.2-0.77-1.79-1.19c-0.58-0.42-1.14-0.87-1.86-1.42c-0.28,0.17-0.66,0.5-1.1,0.64c-0.58,0.18-1.25,0.4-1.8,0.27
			c-0.78-0.19-1.42-0.33-2.1,0.22c-0.18,0.14-0.58,0.04-0.87,0.02c-0.99-0.08-1.99-0.1-2.96-0.29c-0.63-0.12-1.22-0.49-2.09-0.86
			c-0.1,0.46-0.2,0.88-0.27,1.3c-0.22,1.35-0.56,1.57-2.05,1.33c-0.77-0.13-1.27,0.34-1,1.09c0.2,0.55,0.57,1.21,1.05,1.47
			c1.76,0.95,1.53,2.72,1.76,4.22c0.14,0.93-0.19,2-0.54,2.91c-0.47,1.25-0.41,2.27,0.87,3.28c-1.67,0.98-2.2,2.42-2.05,4.34
			c0.52,0.18,1.15,0.4,1.88,0.66c0.29,0.99,0.1,2.24,1.07,3.16c0.27,0.25,0.06,1.07-0.02,1.61c-0.13,0.84-0.37,1.67,0.1,2.6
			c1.18-0.57,0.68-1.9,1.4-2.56c0.94,0.4,1.31,1.42,0.67,2.26c-0.39,0.51-0.99,0.97-1.6,1.18c-0.95,0.33-1.83,0.57-2.4,1.56
			c-0.26,0.46-1.02,0.62-1.68,0.99c-0.08,0.57-0.17,1.23-0.28,2.01c1.05,0.12,1.4,0.74,1.45,1.78c0.03,0.71,0.38,1.45,0.75,2.08
			c0.4,0.68,0.46,1.17-0.02,1.86c-0.56,0.8-0.91,1.73-1.36,2.61c-0.08,0.17-0.11,0.4-0.24,0.5c-0.36,0.3-0.8,0.78-1.15,0.74
			c-0.36-0.04-0.84-0.58-0.93-0.98c-0.35-1.51-0.55-3.06-0.85-4.59c-0.15-0.77-0.41-1.52-0.63-2.28c-0.13-0.48-0.44-0.99-0.38-1.43
			c0.28-1.83-0.29-3.72,0.44-5.52c0.14-0.33,0.17-0.74,0.15-1.1c-0.08-1.97-0.25-3.93-0.28-5.89c-0.02-1.11-0.03-2.29,0.3-3.32
			c0.59-1.79-0.16-3.77,0.89-5.47c0.17-0.28,0.21-0.8,0.07-1.08c-0.52-0.99-1.02-1.96-0.79-3.14c-1.25-1.58-0.67-3.32-0.45-5.03
			c0.01-0.1-0.1-0.22-0.23-0.49c-0.77,0.18-1.62,0.2-1.89-1.09c-0.1,0.11-0.2,0.22-0.3,0.33c0.05,0.31,0,0.68,0.16,0.92
			c0.29,0.44,0.96,0.77,1,1.2c0.06,0.56-0.15,1.41-0.55,1.71c-1.54,1.14-1.67,2.82-1.94,4.45c-0.14,0.8-0.45,1.39-1.1,1.86
			c-0.45,0.32-0.82,0.74-1.21,1.1c0.54,2.41,0.63,4.69-0.42,6.96c-0.48,1.03-0.49,2.22-0.51,3.43c-0.03,1.51,0.99,3.28-0.53,4.65
			c-0.07,0.06-0.04,0.24-0.05,0.36c-0.17,1.79-0.41,3.57-0.49,5.36c-0.07,1.68,0.02,3.37,0.05,5.05c0.02,1.05,0.06,2.07,0.5,3.11
			c0.31,0.73,0.19,1.73,0,2.55c-0.2,0.82-0.73,1.55-0.96,1.99c-1.43,0.62-2.59,1.12-3.89,1.69c-1.14-1.81-1.82-3.91-1.55-6.29
			c0.1-0.84,0.3-1.76-0.74-2.31c0.21-0.63,0.46-1.2,0.59-1.8c0.08-0.39,0-0.81-0.02-1.22c-0.04-1.09-0.37-2.28-0.05-3.24
			c0.66-1.97,0.27-3.66-0.68-5.35c-0.27-0.48-0.56-0.96-0.96-1.63c0.73-0.6,1.43-1.17,2.25-1.85c-0.44-0.15-0.85-0.29-1.48-0.5
			c0.14-0.66,0.23-1.37,0.45-2.05c0.28-0.87,0.29-1.63-0.15-2.51c-0.92-1.81-1.35-3.73-0.92-5.79c0.1-0.5-0.07-1.11-0.25-1.62
			c-0.39-1.06-0.16-1.91,0.56-2.76c0.95-1.13,1.8-2.34,2.69-3.52c-0.1-0.09-0.19-0.18-0.29-0.28c-0.1,0.07-0.2,0.12-0.29,0.21
			c-0.62,0.59-1.28,0.84-1.96,0.14c-0.56-0.58-0.47-2.25,0.29-2.52c1.58-0.57,1.59-1.89,1.89-3.13c0.03-0.12,0.07-0.24,0.15-0.48
			c-0.31-0.04-0.58-0.07-0.98-0.11c0.14,1.01,0.12,1.88-1.31,1.71c-0.14-0.35-0.38-0.74-0.42-1.14c-0.18-1.75-0.3-3.5-0.46-5.25
			c-0.1-1.11,1.47-2.57,2.56-2.36c0.64,0.13,0.99,0.51,0.91,1.19c-0.11,0.93-0.24,1.86-0.35,2.73c0.58,0.42,1.26,0.69,1.55,1.2
			c0.27,0.47,0.24,1.2,0.15,1.79c-0.19,1.27,0.07,2.61-0.6,3.84c-0.13,0.24,0.13,0.83,0.38,1.11c0.36,0.4,0.87,0.66,1.5,1.1
			c0.27-0.57,0.58-1.03,0.71-1.53c0.3-1.2,0.44-2.45,0.8-3.63c0.27-0.9,0.4-1.69-0.44-2.33c1.49-1.09,1.67-1.4,1.16-3.01
			c-0.33-1.06-0.06-1.78,0.71-2.48c1.33-1.2,1.27-1.39,0.08-2.61c-0.44-0.45-0.67-1.14-0.92-1.75c-0.18-0.43-0.22-0.91-0.36-1.51
			c-1.8,1.86-1.39,4.35-2.44,6.44c-1.39-0.65-2.7-1.2-3.94-1.87c-0.3-0.16-0.46-0.69-0.58-1.08c-0.45-1.47-0.86-2.95-1.34-4.61
			c0.66-1.14,1.46-2.46,2.88-3.28c0.24-0.14,0.47-0.49,0.49-0.75c0.13-1.77,1.81-2.58,2.44-4.02c0.04-0.08,0.21-0.11,0.55-0.26
			c0.64,0.79,1.33,1.63,2.05,2.52c-0.28,0.54-0.64,1-0.73,1.51c-0.06,0.35,0.17,1.03,0.4,1.1c0.39,0.1,1.06-0.03,1.28-0.31
			c0.3-0.39,0.34-1.01,0.39-1.54c0.17-1.85,1.87-3.04,3.6-2.47c0.46,0.15,2.03,2.13,2.06,2.69c0.05,1,0.09,2,0.04,2.99
			c-0.07,1.42,0.25,1.85,1.71,2.03c0.25,0.03,0.5,0.05,0.75,0.07c0.86,0.07,1.38,0.44,1.43,1.39c0.03,0.54,0.23,1.06,0.37,1.7
			c-1.22,0.84-1.37,2.05-1.25,3.53c0.11,1.34,0.47,2.84-0.63,4.09c-0.24,0.27-0.03,0.93-0.03,1.43c0.63,0.2,1.15,0.37,1.78,0.58
			C72.38,80.92,72.86,80.54,73.5,80.05z"/>
		<path class="st1" d="M132.9,102.63c1.03,0.97,1.41,1.99,0.9,3.23c-0.52,1.26-1.18,2.42-0.69,3.93c0.19,0.59-0.37,1.41-0.54,2.14
			c-0.3,1.33-0.72,2.65-0.82,4c-0.16,2.08-1.05,3.71-2.65,4.93c-0.75,0.57-0.9,1.12-0.59,1.91c0.36,0.93,0.63,1.91,1.13,2.76
			c0.39,0.66,0.23,1-0.27,1.4c-1.38,1.12-2,2.63-2.27,4.35c-0.31,2-1.51,2.42-3.15,1.15c-0.29-0.23-0.58-0.56-0.92-0.62
			c-1.95-0.37-2.51-1.87-2.95-3.49c-0.42-1.56-0.41-1.57-1.7-2.34c-0.28-1.1-0.51-2.19-0.84-3.25c-0.25-0.81,0.15-1.32,0.78-1.44
			c1.25-0.23,1.47-1.1,1.74-2.1c0.21-0.77,0.61-1.49,0.93-2.24c0.38-0.89,0.96-1.28,1.91-0.77c0.43,0.23,0.89,0.4,1.33,0.62
			c0.7,0.34,2.14,0.1,2.5-0.59c0.23-0.43,0.36-1.26,0.12-1.54c-0.97-1.12-2.11-2.11-3.14-3.1c0.53-2.68,1.1-5.4,1.6-8.13
			c0.11-0.6,0.16-1.32-0.06-1.85c-0.93-2.23,0.13-4.2,0.83-6.14c0.44-1.23,0.83-2.36,0.41-3.59c-0.31-0.92,0.01-1.45,0.78-1.82
			c0.79-0.39,1.49-0.45,2.15,0.37c0.88,1.09,2.06,1.57,3.44,1.07c0.83-0.31,1.89-0.25,2.56-1.52c-0.56,0-1.01-0.14-1.24,0.02
			c-1.43,1.05-2.63,0.34-3.77-0.46c-0.99-0.7-0.95-1.76-0.16-2.71c0.54-0.65,1.03-1.38,1.33-2.16c0.42-1.06,0.97-1.85,2.26-1.97
			c0.01-1.03,0.21-1.87,0.82-2.77c1.03-1.52,1.88-3.25,1.54-5.27c-0.09-0.54,0.07-1.12,0.09-1.68c0.02-0.81,0-1.62,0-2.82
			c0.04-0.05,0.37-0.4,0.71-0.77c0.23,0.11,0.4,0.17,0.54,0.27c1.58,1.14,1.22,2.99,1.65,4.56c0.01,0.05,0.01,0.14-0.03,0.18
			c-1.52,1.48-0.66,3.27-0.61,4.94c0.04,1.09,0.03,2.03-0.73,2.97c-0.46,0.57-0.46,1.5-0.69,2.33c-0.58,0.21-1.2,0.44-2.16,0.79
			c1.16,0.91,2.08,1.64,3.03,2.39c2-0.24,3.63-1.23,4.99-2.9c-1.23-0.6-2.45-1.2-3.76-1.84c0.16-1.15-0.04-2.5,1.73-2.85
			c0.38,0.5,0.74,0.98,1.17,1.53c1.52-0.8,3.18-1.18,4.25-2.66c0.55-0.77,1.77-0.99,2.35-0.55c0.67,0.52,1,1.16,0.71,2.12
			c-0.2,0.67,0.01,1.46,0.06,2.19c0.01,0.18,0.22,0.42,0.16,0.52c-1.13,1.88,0.42,3.69,0.14,5.57c-0.2,1.33-0.16,2.7-0.24,4.06
			c-0.03,0.49-0.29,1.09-0.11,1.46c1.16,2.3,0.01,4.64,0.18,6.95c0.15,2.07-0.17,4.17-0.33,6.26c-0.05,0.74-0.24,1.46-0.35,2.2
			c-0.09,0.55-0.15,1.1-0.23,1.65c-0.07,0.48-0.04,1-0.23,1.43c-0.55,1.24-0.91,2.38-0.78,3.87c0.1,1.14-0.04,2.4,0.09,3.6
			c0.03,0.28-0.01,0.65,0.16,0.83c0.66,0.71,0.47,1.45,0.31,2.28c-0.12,0.63,0,1.32,0.09,1.98c0.07,0.55,0.32,1.08,0.34,1.62
			c0.09,2.18,0.17,4.37,0.15,6.55c-0.01,0.79-0.39,1.58-0.42,2.37c-0.03,1.05,0.18,2.11,0.17,3.16c-0.01,0.72-0.12,1.48-0.36,2.15
			c-0.11,0.31-0.66,0.68-0.98,0.66c-1.17-0.08-2.32-0.32-3.48-0.5c-0.31-0.05-0.71,0.02-0.91-0.15c-1.45-1.21-3.26-1.02-4.94-1.37
			c-1.35-0.28-1.51-0.53-1.56-1.91c-0.05-1.43-0.14-2.87-0.09-4.3c0.03-0.79,0.17-1.64,0.5-2.35c0.79-1.69,0.79-3.4,0.27-5.11
			c-0.34-1.11-0.32-2.05,0.42-2.98c0.74-0.94,0.87-2.08,0.77-3.21c-0.13-1.51,0.14-2.92,0.43-4.4c0.34-1.73,0.16-3.6-0.03-5.39
			c-0.16-1.55-0.59-3.07-0.2-4.64c0.06-0.23,0.1-0.54,0-0.73c-1.11-2.07-0.1-4.45-0.97-6.56c-0.04-0.09,0.07-0.23,0.13-0.41
			c1.14-0.74,2.09,0.24,3.22,0.46c0.41-0.36,0.86-0.75,1.39-1.22c0.97,0.97,1.93,1.85,3.66,1.68c-0.38-1.09-0.74-2.04-1.04-3.01
			c-0.16-0.52-0.26-1.08-0.28-1.63c-0.05-0.92-0.01-1.84-0.01-3.25c-0.55,0.54-1,0.78-1.01,1.03c-0.03,0.93,0.06,1.86,0.16,2.78
			c0.12,1.16-0.52,1.74-1.53,1.18c-0.89-0.5-1.66-1.26-2.39-2c-0.66-0.67-0.74-1.41,0.18-2.04c0.7-0.49,0.5-1.11,0.01-1.6
			c-0.46-0.47-1.3-0.2-1.68,0.53c-0.2,0.38-0.33,0.81-0.4,1.23c-0.35,1.87-0.51,2-2.53,1.77c-0.15,0.64-0.62,1.44-0.4,1.93
			c0.93,2.06-0.82,3.5-1.05,5.27C133.86,101.64,133.26,102.12,132.9,102.63z M141.74,123.13c-0.71,0.42-0.69,1.03-0.27,1.58
			c1.26,1.63,1.36,3.38,0.75,5.26c-0.08,0.26-0.04,0.57-0.06,0.88c1.61-0.22,1.48-0.23,1.52-1.44c0.05-1.49,0.35-2.98,0.24-4.49
			c0-0.06,0.04-0.12,0.05-0.18c0.13-0.9,0.25-1.8,0.33-2.37c-0.69-0.7-1.34-1.05-1.48-1.55c-0.34-1.23-0.06-2.54-0.29-3.82
			c-0.07-0.39,0.62-0.87,0.82-1.36c0.15-0.37,0.24-0.92,0.08-1.24c-0.47-0.91-0.11-1.55,0.48-2.18c0.21-0.23,0.5-0.46,0.56-0.73
			c0.08-0.33,0.07-0.81-0.12-1.03c-0.18-0.21-0.78-0.37-0.97-0.23c-0.63,0.46-1.43,0.96-1.65,1.62c-0.39,1.16-0.38,2.44-0.56,3.67
			c-0.09,0.59-0.07,1.27-0.36,1.73c-1.09,1.75-0.55,3.18,0.62,4.59c0.25,0.3,0.33,0.73,0.49,1.1
			C141.87,123,141.81,123.07,141.74,123.13z M124.54,117.86c-0.3,1.12-0.55,2.06-0.82,3.07c1.55,0.53,1.77-0.62,2.4-1.37
			C125.61,119.01,125.16,118.52,124.54,117.86z M143.55,103.2c0.72,0.48,1.14,0.77,1.99,1.33c-0.18-0.97-0.28-1.49-0.41-2.2
			C144.54,102.65,144.2,102.84,143.55,103.2z M130.29,98.12c-0.38-0.13-0.6-0.29-0.75-0.24c-0.17,0.05-0.28,0.3-0.41,0.46
			c0.18,0.11,0.36,0.31,0.52,0.29C129.82,98.61,129.97,98.38,130.29,98.12z"/>
		<path class="st1" d="M60.87,155.14c0.78-0.55,1.16-2,2.59-1.17c0.34-1.5,0.3-2.83-0.18-4.17c-0.18-0.51-0.16-1.09-0.21-1.64
			c-0.09-1.04-0.09-2.1-0.25-3.13c-0.21-1.36-0.08-1.77,1.04-2.51c1.13-0.75,2.21-1.59,3.38-2.27c1.15-0.67,2.42-0.63,3.55,0.02
			c1.28,0.73,2.09,1.89,2.45,3.34c0.23,0.93,0.78,1.78,0.53,2.82c-0.05,0.23,0.15,0.64,0.37,0.8c1.17,0.9,2.34,1.79,3.57,2.6
			c1.34,0.88,2.83,1.55,4.1,2.52c1.55,1.18,2.94,2.57,4.4,3.87c0.09,0.08,0.22,0.16,0.25,0.27c0.58,1.85,2.28,1.82,3.72,2.32
			c1.24,0.44,2.4,0.74,3.75,0.56c1.12-0.14,2.18,0.43,3.02,1.26c0.44,0.43,0.9,0.85,1.52,1.43c0.57-0.57,1.06-1.11,1.59-1.59
			c1.07-0.96,1.93-0.73,2.36,0.65c0.18,0.59,0.36,1.22,0.35,1.83c-0.03,2.01,0.66,4.03-0.26,6.06c-0.24,0.53,0.37,1.46,0.66,2.42
			c-1.39,1-2.8,1.91-4.83,1.28c-0.97-0.3-2.07-0.18-3.12-0.2c-0.37-0.01-0.75,0.22-1.1,0.16c-3.42-0.59-6.96,0.41-10.34-0.76
			c-0.43-0.15-1.11-0.16-1.45,0.08c-0.99,0.7-2.03,0.48-3.05,0.38c-2.96-0.29-5.92-0.13-8.88-0.28c-0.61-0.03-1.21-0.31-1.83-0.4
			c-1.41-0.21-2.82-0.4-4.23-0.56c-0.96-0.11-1.79-0.34-2.47-1.13c-0.76-0.88-1.66-1.64-2.51-2.43c-1.75-1.63-2.69-3.77-3.77-5.83
			c-0.74-1.42-0.23-2.72,0.49-3.83c0.84-1.29,1.23-2.56,1-4.06c-0.05-0.35-0.01-0.8,0.17-1.08c1.02-1.58,0.93-3.31,0.86-5.06
			c-0.07-1.67,0.55-2.49,2.04-2.94c0.76-0.23,1.47,0.23,1.16,0.88c-0.95,1.98-0.46,4.13-0.94,6.16
			C60.04,153.18,60.21,154.28,60.87,155.14z M97.12,167.96c1.6-1,0.74-2.51,1.02-3.77c-0.57,0.53-1.14,1.06-1.71,1.59
			C96.64,166.45,96.85,167.13,97.12,167.96z M60.64,159.25c-1.18,1.76-0.64,3.57,1.19,4.55C62.04,162.17,61.58,160.78,60.64,159.25z
			 M75.77,158.95c-0.04-0.04-0.09-0.08-0.13-0.12c0,0.12-0.03,0.26,0.02,0.36c0.32,0.61,0.32,1.2-0.15,1.73
			c-0.58,0.65-0.12,0.95,0.33,1.33C76.89,160.9,76.89,160.76,75.77,158.95z"/>
		<path class="st1" d="M104.35,118.34c0.38,0.42,0.88,0.84,1.18,1.36c0.18,0.31,0.23,1.03,0.06,1.15c-1.56,1.07-0.74,2.63-0.88,3.97
			c-0.03,0.29,0.13,0.6,0.19,0.84c-0.53,0.85-1.04,1.66-1.61,2.56c0.87,0.67,1.55,1.19,2.16,1.66c-0.59,1.54-2.35,1.55-2.5,3.23
			c-0.13,1.42,0.05,2.43,1.23,3.21c-0.29,0.66-0.53,1.2-0.82,1.85c1.33,0.61,2.42,1.7,4.18,0.66c-0.47-0.85-0.9-1.63-1.52-2.73
			c0.33-0.22,0.83-0.42,1.13-0.78c0.52-0.61,0.98-1.24,0.62-2.19c-0.29-0.77-0.18-1.57,0.57-2.19c0.68-0.57,0.54-1.22,0.19-2.02
			c-0.47-1.08-1.42-2.09-0.87-3.45c0.09-0.22,0.02-0.59,0.16-0.69c1.33-0.88,0.65-1.62-0.1-2.4c-0.21-0.21-0.33-0.51-0.49-0.76
			c0.31-1,1.11-1.11,1.82-0.91c0.64,0.18,1.51,0.13,1.74,1.13c0.2,0.87,0.97,1.6,0.6,2.64c-0.08,0.23,0.09,0.63,0.27,0.84
			c0.52,0.59,0.37,1.19,0.03,1.73c-0.49,0.79-0.34,1.4,0.31,1.98c1.32,1.17,1.67,2.82,2.17,4.41c0.35,1.13,0.55,2.28,2.13,2.49
			c0.41,0.05,0.97,1.03,0.98,1.59c0.01,1.42,0.66,2.21,1.94,2.58c0.14,1.52-0.75,2.49-1.61,3.3c-0.8,0.75-1.68,1.41-2.5,2.18
			c-0.87,0.82-2.14,1.23-3.29,1.71c-3.19,1.31-6.6,1.72-9.94,2.41c-1.38,0.28-1.86-0.12-2.84-1.75c0.7-0.9,1.15-1.9,1.02-3.19
			c-0.11-1.11,0.36-2.34-1.23-2.74c0.3-1.18,0.69-2.17-0.24-3.11c-0.29-0.3-0.27-1.11-0.11-1.59c0.56-1.67-0.11-3.22-0.41-4.78
			c-0.1-0.51-0.95-0.9-1.49-1.3c-0.39-0.28-0.92-0.41-1.26-0.73c-2.05-1.93-4.52-3.25-6.77-4.88c-1.11-0.8-2.26-2.06-2.16-3.8
			c0.05-0.85-0.06-1.68,0.5-2.47c0.21-0.29-0.05-0.93-0.14-1.41c-0.29-1.5,0.47-2.34,1.97-2.4c1.23-0.04,2.46-0.22,3.67-0.43
			c2.15-0.37,2.73-0.14,3.84,1.71c0.06,0.11,0.08,0.26,0.17,0.33c0.28,0.2,0.63,0.54,0.85,0.48c0.25-0.07,0.49-0.5,0.56-0.82
			c0.43-1.87,0.84-2.21,2.42-2.03c0.65,0.07,1.04,0.36,1.19,0.99c0.04,0.18,0.06,0.37,0.1,0.55
			C101.94,118.83,101.94,118.83,104.35,118.34z M97.19,129.04c0.82-0.04,1.63-0.09,2.63-0.14c-0.23-1.03-0.57-1.69-1.45-1.64
			C97.61,127.3,96.88,127.62,97.19,129.04z M102.95,127.44c-0.44-0.38-0.81-0.7-1.19-1.02c-0.16,0.06-0.33,0.11-0.49,0.17
			c-0.07,0.4-0.31,0.89-0.16,1.17C101.43,128.35,101.98,128.3,102.95,127.44z"/>
		<path class="st1" d="M36.91,84.95c0.31,0.86,0.86,1.22,1.81,0.59c0.62-0.41,1.28-0.75,2.04-1.18c0.71,0.75,1.57,1.09,2.64,1.33
			c1.21,0.26,2.26,1.23,3.13,1.74c0.81,1.23,1.45,2.33,2.23,3.32c0.42,0.53,0.66,1,0.64,1.67c-0.05,1.38,0.43,2.74-0.33,4.15
			c-0.37,0.7,0.07,1.8,0.06,2.71c-0.02,1.84-0.06,3.69-0.16,5.53c-0.02,0.4-0.21,0.89-0.49,1.16c-1.17,1.11-2.41,2.14-3.62,3.21
			c-0.65,0.57-1.47,1.06-1.88,1.78c-0.76,1.31-1.63,2.13-3.25,1.96c-0.53-0.05-1.11,0.36-1.63,0.29c-1.02-0.14-2.08,0.01-2.9-1.12
			c-0.54-0.74-1.92-0.8-2.71-1.44c-2.3-1.84-5.13-3.09-6.63-5.84c-0.19-0.34-0.3-0.77-0.31-1.16c-0.03-0.98,0.15-1.98-0.01-2.94
			c-0.24-1.44,0.22-2.53,1.14-3.58c0.47-0.53,0.74-1.24,1.06-1.89c0.11-0.21,0.01-0.56,0.15-0.72c1.54-1.67,1.44-3.8,1.64-5.83
			c0.07-0.77,0.36-1.23,1.04-1.61c0.51-0.28,1.08-0.73,1.28-1.24c0.49-1.23,1.52-1.16,2.46-1.19
			C35.08,84.62,35.88,84.82,36.91,84.95z M38.18,91.15c-0.19,0.35-0.29,0.59-0.43,0.78c-1.4,1.85-2.24,4.15-4.45,5.37
			c-0.76,0.42-0.93,1.26-0.54,2.14c0.5,1.13,0.96,2.28,1.4,3.44c0.21,0.56,0.57,0.78,1.14,0.73c1.15-0.09,1.85-0.71,2.15-1.88
			c0.09-0.36,0.21-0.72,0.36-1.06c0.56-1.27,0.89-1.5,2.14-1.01c1.23,0.49,2.2-0.04,3.19-0.52c0.59-0.29,0.94-0.93,0.6-1.59
			c-0.63-1.22-0.39-2.39,0.12-3.57C42.24,92.48,40.63,91.14,38.18,91.15z"/>
		<path class="st1" d="M141.28,160.72c-0.94,0.14-1.78,0.26-2.71,0.4c-0.1,0.72,0.08,1.36,0.83,1.41c1.19,0.08,1.29,0.79,1.22,1.67
			c-0.1,1.17-0.27,2.34-0.41,3.51c-0.01,0.06-0.01,0.13-0.04,0.18c-0.33,0.44-0.6,1.17-1.02,1.27c-1.57,0.37-1.78,2.74-3.9,2.36
			c-1.83-0.32-3.56,0.47-5.05,1.53c-1.8,1.28-3.67,1.44-5.66,0.62c-0.63-0.26-1.23-0.64-1.88-0.83c-0.94-0.29-1.91-0.65-2.86-0.63
			c-1.09,0.03-1.52-0.4-1.95-1.3c-1.03-2.16-1.57-4.29-0.52-6.61c0.22-0.47,0.15-1.12,0.09-1.67c-0.36-3.09,0.73-5.74,2.41-8.22
			c0.65-0.97,1.59-0.79,2.31-0.58c2.3-1.69,4.37-3.4,6.64-4.77c0.8-0.49,2.13-0.33,3.17-0.16c2.52,0.41,4.62,1.8,6.71,3.17
			c0.26,0.17,0.47,0.52,0.74,0.55c1.67,0.24,2.14,1.31,1.99,2.81c1.65,0.3,3.32,0.12,4.8,1.14c1.24,0.86,1.52,1.94,1.2,3.25
			c-0.52,2.1-2.11,3.35-3.85,4.37c-0.84,0.49-1.52-0.02-1.67-1.04c-0.1-0.68-0.18-1.36-0.29-2.03
			C141.55,161.01,141.43,160.92,141.28,160.72z M127.68,161.67c-0.16-0.06-0.31-0.13-0.47-0.19c-0.35,0.67-0.82,1.31-1.01,2.02
			c-0.18,0.68,0.15,1.29,0.94,1.58C127.83,164.01,128.09,162.89,127.68,161.67z M136.37,163.77c-0.86-0.88-0.2-2.12-1.61-2.82
			c-0.24,0.96-0.46,1.81-0.71,2.82C134.8,163.77,135.38,163.77,136.37,163.77z"/>
		<path class="st1" d="M159.57,88.24c0.07-0.28,0.12-0.78,0.3-1.23c0.46-1.16,0.78-1.21,1.99-0.91c1.5,0.36,3.02,0.64,4.55,0.84
			c1.02,0.13,1.96,0.26,2.7,1.08c0.28,0.31,0.7,0.65,1.09,0.7c1.85,0.23,2.6,1.67,3.47,2.99c1.47,2.22,2.97,4.43,4.42,6.66
			c1.06,1.62,0.69,4.25-0.83,5.44c-1.19,0.93-1.86,2.11-2.39,3.49c-0.58,1.51-1.25,3.02-2.1,4.39c-0.85,1.37-2.26,2.1-3.87,2.32
			c-0.86,0.12-1.75,0.1-2.62,0.12c-1.36,0.03-2.73,0.02-4.09,0.07c-0.97,0.03-1.84-0.06-2.43-1.01c-0.25-0.41-0.68-0.76-1.11-1
			c-2.07-1.17-2.58-3.27-3.25-5.29c-0.24-0.71-0.58-1.38-0.89-2.11c0.17-0.29,0.4-0.59,0.55-0.92c0.24-0.54,0.47-1.07,1.22-0.83
			c0.79,0.26,1.32,1.18,1.08,1.94c-0.16,0.51-0.45,0.98-0.68,1.47c0.1,0.07,0.21,0.13,0.31,0.2c0.22-0.37,0.6-0.71,0.65-1.1
			c0.3-2.42,0.29-2.43,2.65-2.61c0.36-0.9,0.3-1.57-0.74-2.1c-0.38-0.19-0.62-0.9-0.68-1.4c-0.1-0.81,0.44-1.22,1.17-0.87
			c0.77,0.37,1.49,0.48,2.33,0.45c2.55-0.09,3.68,1.03,3.81,3.71c0.72,0.49,1.48,1,2.46,1.66c0.23-0.36,0.63-0.71,0.65-1.09
			c0.09-1.74,0.24-3.45,0.58-5.18c0.25-1.3-0.15-2.95-1.65-3.63c-1.97-0.89-3.32-2.31-4.27-4.19c-0.11-0.22-0.3-0.39-0.55-0.72
			c-0.7,1.22-1.29,2.41-2.02,3.51c-0.78,1.17-0.84,1.13-2.29,0.8c-0.85,0.52-0.43,2.19-2.17,2.16c0.25,0.8,0.48,1.54,0.73,2.28
			c0.42,1.21,0.21,2.09-0.67,2.88c-0.45,0.4-0.93,0.76-1.46,0.23c-0.5-0.49-0.88-1.1-0.39-1.82c0.16-0.24,0.43-0.4,0.73-0.67
			c-1.79-1.53-1.27-3.32-0.71-5.12c0.42-1.36,0.72-2.79,1.98-3.71C157.85,89.55,158.58,88.99,159.57,88.24z M161.08,106.17
			c0.44,0.75,0.72,1.37,1.14,1.87c0.23,0.28,0.98,0.56,1.02,0.5c0.47-0.67,0.92-1.37,1.21-2.13c0.07-0.2-0.44-0.63-0.71-0.93
			c-0.06-0.06-0.24-0.04-0.36,0C162.63,105.71,161.89,105.93,161.08,106.17z"/>
		<path class="st1" d="M100.97,103.98c-0.27,3,0.99,5.86-0.6,8.75c-0.72-0.84-1.35-1.49-1.89-2.21c-0.25-0.33-0.42-0.78-0.47-1.2
			c-0.25-1.99-0.71-3.88,0.35-5.94c0.88-1.7,1.18-3.82,0.09-5.77c-0.38-0.68-0.07-1.39,0.56-1.52c1.38-0.27,1.17-1.65,1.9-2.36
			c0.8-0.78,0.54-1.71,0.34-2.75c-0.31-1.69-0.15-3.46-0.3-5.18c-0.08-0.89-0.42-1.76-0.68-2.78c-1.73,0.12-2.45-0.96-2.59-2.6
			c-0.46,0.08-0.82,0.15-1.27,0.23c-0.76-0.9-1.33-1.93-0.85-3.16c0.28-0.72,0.94-1.02,1.94-0.24c-0.09-0.87-0.15-1.44-0.2-2
			c-1.6,0.05-2.32-0.53-2.52-1.85c-0.11-0.7,0.42-1.31,1.31-1.53c1.85-0.45,1.85-0.45,1.47-2.29c-0.11-0.55-0.26-1.09-0.37-1.64
			c-0.15-0.78-0.08-0.93,0.73-2.06c0.9,0.12,1.56,1.15,2.73,0.73c0.59-0.21,1.03,0.49,1.05,1.24c0.03,1.07-0.15,1.32-1.4,1.63
			c0.31,0.38,0.93,0.83,0.87,1.13c-0.08,0.39-0.7,0.68-1.29,1.18c0.04,0.3,0.11,0.84,0.19,1.38c0.18,1.23,0.39,2.42-0.34,3.63
			c-0.29,0.48-0.12,1.3,0,1.94c0.14,0.72,0.46,1.4,0.75,2.22c0.33,0.02,0.78-0.04,1.16,0.1c0.49,0.18,1.23,0.44,1.34,0.82
			c0.69,2.32,2.71,3.62,4.1,5.65c-0.95,0.42-1.75,0.99-1.15,2.34c0.5,0.21,1.11,0.48,1.89,0.82c-0.75,1.98-1.52,3.88-2.16,5.82
			c-0.17,0.51-0.1,1.26,0.17,1.71c0.85,1.42,0.95,2.16,0.15,3.88c-0.55,0-1.15,0-1.98,0c0.65,1.33,1.48,2.15,2.44,2.81
			c1.33,0.92,1.73,2.02,1.44,3.64c-0.18,1.04,0.2,2.18,0.38,3.67c0.48-0.79,0.78-1.27,1.08-1.75c1.69,0.55,1.9,0.83,1.5,2.44
			c-0.37,1.48,0.16,2.64,1.2,4c0.49-0.86,0.86-1.55,1.27-2.21c0.63-1,1.27-1.05,1.73,0.01c0.59,1.37,1.48,2.69,1.11,4.35
			c-0.09,0.42,0.24,0.92,0.36,1.4c0.11,0.44,0.18,0.89,0.27,1.39c-1.12,0.14-1.4-0.5-1.7-1.11c-0.7-1.42-0.9-1.52-2.45-1.31
			c-1.78,0.25-2.4-0.12-3.16-1.73c-0.23-0.48-0.6-0.9-0.98-1.29c-0.3-0.31-0.71-0.51-1.04-0.79c-0.41-0.35-0.75-0.86-1.22-1.03
			c-0.2-0.07-0.61,0.62-1,0.84c-0.29,0.16-0.69,0.12-0.87,0.14c-0.37-0.69-0.66-1.24-0.95-1.79c-0.7-1.31-0.87-2.74-0.72-4.18
			c0.19-1.76-0.75-3.26-1.01-4.91C101.65,104.43,101.22,104.22,100.97,103.98z M101.01,101.29c1.02-1.63,1.02-1.63-0.02-2.38
			C100.28,99.71,100.68,100.49,101.01,101.29z M102.98,99.12c-0.23,0.83,0.03,1.22,0.73,1.28c0.12,0.01,0.37-0.19,0.38-0.31
			C104.19,99.36,103.79,99.1,102.98,99.12z"/>
		<path class="st1" d="M98.84,148.26c-1.61,0.3-2.81,0.49-3.99,0.76c-1.27,0.29-2.4,0.17-3.55-0.55c-0.41-0.26-1.17,0-1.76,0.08
			c-0.85,0.12-1.7,0.37-2.55,0.41c-0.32,0.01-0.93-0.44-0.93-0.68c0.02-2.27-1.7-3.25-3.22-4.26c-1.64-1.08-2.62-2.43-2.73-4.38
			c-0.04-0.72-0.41-1.16-1.05-1.39c-0.29-0.1-0.62-0.12-0.9-0.24c-0.79-0.35-1.15-1.1-1.02-1.83c0.09-0.49,0.64-1.04,1.13-1.28
			c1.15-0.57,2.6-0.29,3.65-1.23c1.21,0.48,2.77-0.2,3.74,1.15c0.95,1.33,2.38,0.67,3.62,0.75c0.3,0.02,0.61-0.13,0.91-0.2
			c1.81-0.38,2.19-0.21,3.22,1.47c0.57-0.06,1.18-0.15,1.79-0.19c1.13-0.08,1.41,0.18,1.6,1.29c0.33,1.95,0.33,3.98,1.48,5.73
			c0.16,0.24,0.13,0.84-0.07,1.06C97.12,145.93,97.53,146.97,98.84,148.26z"/>
		<path class="st1" d="M118.18,76.34c0.12,0.54,0.24,1.08,0.36,1.62c0.14,0,0.28,0,0.43,0.01c0.14-0.56,0.29-1.12,0.43-1.68
			c0.2-0.83,0.62-1.37,1.43-1.82c1.32-0.74,2.63-1.59,3.7-2.65c0.86-0.85,1.75-0.62,2.59-0.5c0.65,0.09,1.31,0.51,1.4,1.48
			c0.06,0.7,0.45,1.42,0.85,2.04c1.5,2.33,1.74,4.8,1,7.41c-0.27,0.94-0.65,1.84-0.92,2.77c-0.36,1.26-1.32,1.63-2.4,0.86
			c-0.89-0.63-1.72-1.27-1.21-2.61c0.15-0.4-0.04-0.92-0.07-1.39c-0.12-0.01-0.25-0.03-0.37-0.04c-0.18,0.7-0.36,1.39-0.54,2.08
			c-3.07-0.67-3.96-1.31-5.96-4.36c-0.31,1.82-1.56,2.31-3.03,2.46c-1.8-1.44-1.9-2.45-0.45-4.16c0.36-0.43,0.73-0.86,1.12-1.26
			C117.01,76.13,117.54,75.86,118.18,76.34z"/>
		<path class="st1" d="M117.8,96.36c0.87,0.6,1.19,1.23,0.8,2.26c-0.37,0.97,0.12,1.91,0.62,2.77c0.95,1.64,0.02,3.69-1.8,3.9
			c-1.04,0.12-2.1,0.16-3.15,0.11c-2.28-0.12-4.1-2.09-4.17-4.45c0-0.06,0.02-0.13,0-0.19c-0.77-2.31,0.19-4.38,0.88-6.49
			c0.09-0.28,0.22-0.59,0.43-0.79c1.08-1.03,2.16-2.06,3.28-3.04c0.99-0.86,1.54-0.7,2.12,0.52c0.29,0.62,0.56,1.26,0.92,1.83
			C118.6,94.18,118.63,94.46,117.8,96.36z M115.81,94.3c-0.12-0.09-0.24-0.19-0.36-0.28c-0.17,0.28-0.34,0.56-0.51,0.84
			c0.09,0.06,0.18,0.12,0.26,0.18C115.41,94.79,115.61,94.54,115.81,94.3z"/>
		<path class="st1" d="M85.95,123.49c-1.69,0.47-3.21,0.97-4.77,1.31c-0.9,0.19-1.86,0.21-2.78,0.15c-1.07-0.07-1.61-0.78-1.28-1.78
			c0.28-0.85,0.24-1.32-0.55-1.87c-1.07-0.74-1.04-1.54-0.09-2.46c0.26-0.25,0.62-0.39,0.92-0.6c0.91-0.6,1.84-1.08,1.73-2.52
			c-0.05-0.71,0.57-1.46,0.99-2.43c0.92,0.47,1.85,0.88,2.72,1.41c0.23,0.14,0.43,0.71,0.33,0.96c-0.49,1.25,0.24,2.07,1,2.77
			C85.74,119.86,85.61,121.74,85.95,123.49z"/>
		<path class="st1" d="M113.51,157.66c0.61,0.32,1.53,0.48,1.77,0.98c0.4,0.82,0.92,1.85,0.06,2.8c-0.57,0.63-0.68,1.35-0.69,2.21
			c-0.03,1.54-0.4,3.08-0.42,4.62c-0.01,0.84,0.37,1.68,0.6,2.52c0.29,1.03,0.14,1.36-0.9,1.61c-0.61,0.15-1.23,0.22-1.83,0.37
			c-1.63,0.41-2.67-0.38-2.54-2.05c0.24-2.97,0.56-5.93,0.83-8.9c0.03-0.37,0.01-0.75,0.05-1.12
			C110.62,158.68,111.41,157.93,113.51,157.66z"/>
		<path class="st1" d="M131.16,58.98c0.97,0.98,2,2.03,3.04,3.06c0.44,0.43,0.94,0.8,1.38,1.24c0.61,0.6,1.25,1.19,1.76,1.87
			c0.57,0.76,0.36,1.68-0.52,1.93c-1.35,0.39-2.75,0.67-4.15,0.78c-0.48,0.03-1.17-0.51-1.47-0.98c-0.89-1.39-1.41-2.98-2.44-4.34
			C127.89,61.37,129.13,59.6,131.16,58.98z"/>
		<path class="st1" d="M107.53,164.92c-0.24,1.21-0.1,1.96,0.64,2.78c0.92,1.03,0.01,4.14-1.21,4.89c-0.73,0.45-2.44-0.12-2.72-0.95
			c-0.18-0.53-0.33-1.11-0.29-1.65c0.18-2.85,0.4-5.69,0.65-8.54c0.06-0.71-0.09-1.6,0.9-1.84c0.6-0.15,1.18,0.56,1.41,1.7
			C107.15,162.58,107.35,163.87,107.53,164.92z"/>
		<path class="st1" d="M112.37,73.28c0.95,1.03,0.56,1.99,0.43,2.84c-0.13,0.86-0.28,1.59,0.1,2.51c0.62,1.46-0.67,2.97-2.27,2.99
			c-0.59,0.01-1.26,0.08-1.76,0.36c-1.02,0.59-1.86,0.58-2.74-0.41c0.24-0.81,1.09-1.6,0.38-2.65c-0.13-0.19,0.43-0.96,0.8-1.35
			c1.3-1.4,1.64-1.45,3.39-0.74C111.22,75.69,111.76,74.56,112.37,73.28z"/>
		<path class="st1" d="M85.94,104.88c-0.61,0.29-1.39,0.66-2.17,1.03c-0.99-0.72-2-1.41-2.96-2.17c-0.6-0.48-0.56-0.73,0-2.22
			c1.61-0.55,2.88,0.37,4.18,1.04c1.42,0.73,1.41,0.76,2.45-0.45c0.24-0.28,0.51-0.55,0.79-0.8c0.18-0.16,0.4-0.26,0.58-0.37
			c1.94,1.45,2.41,2.92,1.49,4.65c-0.39,0.74-0.92,1.19-1.81,0.69C87.76,105.86,87.01,105.47,85.94,104.88z"/>
		<path class="st1" d="M120,68.11c-0.47-0.69-0.83-1.23-1.22-1.8c0.41-0.33,0.69-0.56,0.91-0.74c-0.14-0.77-0.43-1.5-0.37-2.2
			c0.06-0.7,0.47-1.38,0.73-2.08c1.45-0.55,2.56-0.29,3.5,0.8c0.24,0.28,0.56,0.48,0.81,0.75c1.13,1.22,0.8,2.41-0.74,2.96
			c-0.5,0.18-0.94,0.53-1.39,0.83c-0.31,0.21-0.56,0.49-0.86,0.7C121.01,67.56,120.62,67.75,120,68.11z"/>
		<path class="st1" d="M84.75,92.62c0,1.05,0,2.16,0,3.37c-0.12,0.08-0.31,0.27-0.53,0.32c-1.79,0.39-1.76,0.38-1.23,2.1
			c0.12,0.38-0.01,1.04-0.28,1.27c-0.3,0.26-0.94,0.36-1.36,0.24c-0.95-0.26-1.81-2.33-1.5-3.29c0.19-0.57,0.38-1.16,0.45-1.76
			C80.56,92.64,82.49,91.6,84.75,92.62z"/>
		<path class="st1" d="M99.27,88.51c0.38,1.51,0.72,2.57,0.89,3.66c0.15,1.03-0.73,1.48-1.51,2.12c-1.05-0.66-2.12-1.34-3.28-2.08
			c-0.59,0.73-1.09,1.34-1.57,1.93c-1.68-0.7-1.68-0.7-1.39-3.13c1.54,0,3.11,0.09,4.65-0.05c0.5-0.05,0.97-0.67,1.39-1.1
			C98.7,89.6,98.85,89.22,99.27,88.51z"/>
		<path class="st1" d="M112.7,71.01c-0.71-0.34-1.43-0.68-2.44-1.15c-0.01-1.51-0.1-3.17,0.02-4.81c0.04-0.48,0.68-0.92,1.05-1.38
			c0.39,0.34,0.89,0.61,1.15,1.03c0.45,0.72,0.76,1.53,1.12,2.31C114.32,68.58,113.95,70.2,112.7,71.01z"/>
		<path class="st1" d="M92,86.44c1.93,0.67,1.93,0.67,1.92,2.86c-0.79,0.34-1.61,0.7-2.45,1.06c-1.23-0.86-1.3-1.09-0.65-2.13
			c0.2-0.31,0.42-0.61,0.62-0.92C91.61,87.06,91.77,86.8,92,86.44z"/>
		<path class="st1" d="M105.69,57.48c1.97,2.15,1.84,4.28,1.91,6.41c-1.31,0.26-1.87-0.23-2.11-1.23
			C105.08,61.02,105.17,59.42,105.69,57.48z"/>
		<path class="st1" d="M106.24,46.16c0.29,1.1,0.55,2.2,0.87,3.28c0.13,0.46,0.41,0.88,0.56,1.34c0.21,0.63,0.19,1.33-0.47,1.62
			c-0.61,0.27-1.01-0.15-1.17-0.79c-0.04-0.17-0.22-0.35-0.38-0.43c-1.08-0.52-1.4-1.04-1.05-2.07c0.33-0.98,0.78-1.92,1.17-2.88
			C105.93,46.2,106.09,46.18,106.24,46.16z"/>
		<path class="st1" d="M98.86,87.46c-0.43-0.23-0.83-0.32-0.92-0.53c-0.17-0.41-0.36-1-0.19-1.32c0.33-0.61,0.9-1.09,1.41-1.59
			c0.06-0.06,0.44,0.07,0.48,0.18c0.2,0.55,0.57,1.2,0.44,1.69C99.92,86.46,99.31,86.92,98.86,87.46z"/>
		<path class="st1" d="M120.42,100.04c-0.06-0.89-0.21-1.58-0.12-2.24c0.04-0.31,0.5-0.67,0.84-0.79c0.18-0.06,0.64,0.33,0.76,0.6
			c0.32,0.74,0.6,1.49,0.16,2.33c-0.25,0.48-0.26,1.09-0.48,1.59c-0.13,0.28-0.48,0.47-0.73,0.69c-0.22-0.31-0.6-0.61-0.64-0.94
			C120.16,100.81,120.36,100.31,120.42,100.04z"/>
		<path class="st1" d="M88.69,98.78c-0.53,0.57-1.06,0.91-1.83-0.38c0.74-0.06,1.26-0.1,1.77-0.14
			C88.65,98.44,88.67,98.61,88.69,98.78z"/>
		<path class="st1" d="M111.97,72.46c0.03,0.04,0.09,0.08,0.09,0.11c0,0.04-0.06,0.07-0.1,0.1c-0.03-0.04-0.09-0.08-0.09-0.11
			C111.87,72.52,111.93,72.49,111.97,72.46z"/>
		<path class="st1" d="M73.04,41.29c0.12-0.7,0.22-1.31,0.32-1.92c2.18-1.36,2.18-1.36,3.15-0.98c0.05,0.8-0.43,1.1-1.14,1.1
			c-0.74,0-1.36,0.15-1.59,1.06c0.26,0.22,0.53,0.44,0.9,0.74C74.04,41.29,73.54,41.29,73.04,41.29z"/>
		<path class="st1" d="M116.33,50.66c0.51-0.95,0.9-1.7,1.33-2.51c1.03,0.51,0.66,1.52,0.85,2.27c0.03,0.14-0.59,0.6-0.93,0.64
			C117.19,51.09,116.78,50.81,116.33,50.66z"/>
		<path class="st1" d="M138.84,52.1c0.24-1.36,0.42-2.36,0.6-3.35C140.54,50,140.47,50.75,138.84,52.1z"/>
		<path class="st1" d="M117.56,44.76c-0.44-0.94-0.66-1.85,0.58-2.57C118.6,43.22,118.07,43.99,117.56,44.76z"/>
		<path class="st1" d="M99.32,52.78c-0.63-0.79-1.42-1.55-1.12-2.61c0.14-0.04,0.28-0.08,0.42-0.12
			C98.86,50.96,99.09,51.87,99.32,52.78z"/>
		<path class="st1" d="M92.74,41.79c-0.03-0.29-0.07-0.36-0.04-0.41c0.45-0.79,1.15-0.87,1.89-0.57c0.17,0.07,0.35,0.6,0.25,0.75
			C94.26,42.5,93.5,42.06,92.74,41.79z"/>
		<path class="st1" d="M71.03,43.07c0.66-0.29,0.97-0.42,1.33-0.58C72.14,43.37,72.14,43.37,71.03,43.07z"/>
		<path class="st1" d="M69.37,43.83c0.15-0.33,0.21-0.77,0.47-0.98c0.27-0.23,0.5,0.27,0.25,0.7c-0.09,0.15-0.21,0.28-0.32,0.41
			C69.63,43.92,69.5,43.88,69.37,43.83z"/>
		<path class="st1" d="M87.62,62.75c-0.04,0.03-0.07,0.09-0.11,0.09c-0.04,0-0.07-0.06-0.11-0.09c0.04-0.03,0.07-0.09,0.11-0.09
			C87.55,62.66,87.59,62.71,87.62,62.75z"/>
		<path class="st1" d="M141.93,122.94c-0.16-0.37-0.25-0.8-0.49-1.1c-1.17-1.41-1.72-2.85-0.62-4.59c0.29-0.47,0.27-1.15,0.36-1.73
			c0.18-1.23,0.18-2.51,0.56-3.67c0.22-0.66,1.02-1.16,1.65-1.62c0.19-0.14,0.79,0.02,0.97,0.23c0.19,0.22,0.2,0.7,0.12,1.03
			c-0.06,0.27-0.35,0.5-0.56,0.73c-0.59,0.64-0.94,1.27-0.48,2.18c0.17,0.32,0.07,0.87-0.08,1.24c-0.2,0.5-0.89,0.97-0.82,1.36
			c0.22,1.28-0.05,2.59,0.29,3.82c0.14,0.5,0.79,0.86,1.48,1.55c-0.08,0.57-0.2,1.47-0.33,2.37c-0.01,0.06-0.06,0.12-0.05,0.18
			c0.12,1.51-0.19,2.99-0.24,4.49c-0.04,1.22,0.09,1.22-1.52,1.44c0.02-0.31-0.03-0.61,0.06-0.88c0.61-1.88,0.51-3.64-0.75-5.26
			c-0.42-0.54-0.44-1.16,0.27-1.58c0.11,0.1,0.22,0.21,0.33,0.31C142.03,123.27,141.98,123.1,141.93,122.94z"/>
		<path class="st1" d="M124.54,117.86c0.61,0.66,1.06,1.15,1.58,1.7c-0.63,0.75-0.85,1.9-2.4,1.37
			C123.99,119.93,124.24,118.98,124.54,117.86z"/>
		<path class="st1" d="M143.55,103.2c0.65-0.36,1-0.55,1.57-0.87c0.13,0.71,0.23,1.23,0.41,2.2
			C144.69,103.97,144.27,103.68,143.55,103.2z"/>
		<path class="st1" d="M130.29,98.12c-0.32,0.27-0.47,0.49-0.64,0.51c-0.16,0.02-0.35-0.19-0.52-0.29c0.13-0.16,0.24-0.41,0.41-0.46
			C129.69,97.82,129.91,97.98,130.29,98.12z"/>
		<path class="st1" d="M97.12,167.96c-0.26-0.83-0.47-1.51-0.69-2.18c0.56-0.52,1.14-1.06,1.71-1.59
			C97.85,165.45,98.72,166.95,97.12,167.96z"/>
		<path class="st1" d="M60.64,159.25c0.94,1.53,1.4,2.93,1.19,4.55C60,162.82,59.46,161.01,60.64,159.25z"/>
		<path class="st1" d="M75.77,158.95c1.12,1.82,1.13,1.95,0.06,3.3c-0.45-0.37-0.91-0.68-0.33-1.33c0.47-0.53,0.48-1.12,0.15-1.73
			c-0.05-0.1-0.01-0.24-0.02-0.36C75.68,158.87,75.72,158.91,75.77,158.95z"/>
		<path class="st1" d="M97.19,129.04c-0.31-1.42,0.42-1.74,1.18-1.78c0.89-0.05,1.22,0.62,1.45,1.64
			C98.82,128.96,98.01,129,97.19,129.04z"/>
		<path class="st1" d="M102.95,127.44c-0.97,0.85-1.52,0.91-1.84,0.31c-0.15-0.28,0.09-0.77,0.16-1.17
			c0.16-0.06,0.33-0.11,0.49-0.17C102.14,126.74,102.51,127.06,102.95,127.44z"/>
		<path class="st1" d="M127.68,161.67c0.4,1.22,0.15,2.34-0.54,3.41c-0.79-0.29-1.12-0.9-0.94-1.58c0.19-0.71,0.66-1.35,1.01-2.02
			C127.37,161.54,127.53,161.6,127.68,161.67z"/>
		<path class="st1" d="M136.37,163.77c-0.99,0-1.57,0-2.32,0c0.26-1.01,0.47-1.86,0.71-2.82
			C136.16,161.65,135.5,162.9,136.37,163.77z"/>
		<path class="st1" d="M161.08,106.17c0.8-0.24,1.55-0.47,2.3-0.68c0.11-0.03,0.3-0.06,0.36,0c0.27,0.3,0.78,0.73,0.71,0.93
			c-0.28,0.76-0.74,1.46-1.21,2.13c-0.04,0.06-0.79-0.22-1.02-0.5C161.8,107.54,161.53,106.93,161.08,106.17z"/>
		<path class="st1" d="M101.01,101.29c-0.33-0.8-0.73-1.58-0.02-2.38C102.03,99.66,102.03,99.66,101.01,101.29z"/>
		<path class="st1" d="M102.98,99.12c0.8-0.02,1.21,0.24,1.11,0.97c-0.02,0.12-0.26,0.33-0.38,0.31
			C103.02,100.34,102.75,99.95,102.98,99.12z"/>
		<path class="st1" d="M115.81,94.3c-0.2,0.24-0.4,0.49-0.6,0.73c-0.09-0.06-0.18-0.12-0.26-0.18c0.17-0.28,0.34-0.56,0.51-0.84
			C115.58,94.11,115.69,94.2,115.81,94.3z"/>
		<path class="st1" d="M141.93,122.94c0.05,0.17,0.09,0.34,0.14,0.51c-0.11-0.1-0.22-0.21-0.33-0.31
			C141.81,123.07,141.87,123,141.93,122.94z"/>
	</g>
</g>
</svg>
